<?xml version="1.0" standalone="no"?>
<!DOCTYPE svg PUBLIC "-//W3C//DTD SVG 20010904//EN"
 "http://www.w3.org/TR/2001/REC-SVG-20010904/DTD/svg10.dtd">
<svg version="1.0" xmlns="http://www.w3.org/2000/svg"
 width="1837.000000pt" height="886.000000pt" viewBox="0 0 1837.000000 886.000000"
 preserveAspectRatio="xMidYMid meet">

<g transform="translate(0.000000,886.000000) scale(0.100000,-0.100000)"
fill="#000000" stroke="none">
<path d="M0 4430 l0 -4430 2530 0 2530 0 0 81 c0 60 3 80 13 76 6 -2 19 -1 27
3 47 24 87 -47 55 -96 -13 -20 -23 -25 -46 -22 -28 4 -40 -6 -32 -29 4 -10
276 -13 1314 -13 731 0 1308 4 1305 9 -3 4 11 8 32 7 32 -1 37 2 40 24 3 20 1
23 -9 12 -18 -17 -36 -15 -59 8 -41 41 -7 120 44 101 16 -7 27 -6 36 2 9 9 11
-7 8 -76 l-3 -87 148 0 c81 0 147 4 147 9 0 4 17 8 38 7 32 -1 37 2 40 22 3
21 1 22 -18 12 -57 -30 -100 70 -46 105 17 12 30 14 43 7 10 -5 24 -7 30 -5
16 6 18 -109 3 -138 -10 -18 -6 -19 175 -19 l185 0 0 23 c0 20 -4 23 -29 19
-21 -3 -33 2 -45 19 -30 44 -12 100 32 99 67 -1 62 6 62 -81 l0 -79 236 0
c143 0 243 4 255 10 24 13 24 36 -1 100 -11 27 -16 50 -11 50 8 0 15 -16 36
-75 l7 -20 9 20 c5 11 14 34 20 50 6 17 13 25 15 19 3 -6 -7 -41 -21 -77 -14
-37 -25 -70 -25 -72 0 -3 18 -5 40 -5 38 0 40 2 40 30 0 17 5 30 11 30 7 0 8
-11 4 -30 l-7 -30 496 0 496 0 0 24 c0 14 5 28 12 32 8 5 9 -2 5 -24 l-6 -32
4104 0 4105 0 0 4430 0 4430 -9185 0 -9185 0 0 -4430z m3280 4090 c0 -24 -26
-38 -42 -22 -16 16 -2 42 22 42 13 0 20 -7 20 -20z m-1879 -9 c17 -13 23 -29
23 -56 0 -46 -31 -75 -80 -75 -32 0 -34 -2 -34 -35 0 -32 -2 -35 -30 -35 l-30
0 0 110 0 110 64 0 c47 0 70 -5 87 -19z m1777 3 c27 -19 30 -54 3 -54 -10 0
-24 7 -31 15 -17 20 -54 15 -58 -7 -3 -13 8 -20 43 -29 57 -14 83 -47 69 -87
-24 -70 -174 -54 -174 17 0 17 47 13 54 -4 3 -9 18 -15 36 -15 23 0 30 4 30
20 0 14 -11 22 -41 30 -44 12 -79 41 -79 65 0 9 11 27 25 40 29 29 88 34 123
9z m562 -20 c0 -31 2 -35 15 -24 9 7 26 9 45 5 38 -8 50 -35 50 -111 0 -53 0
-54 -30 -54 -30 0 -30 0 -30 59 0 41 -4 60 -14 64 -23 9 -36 -15 -36 -70 0
-50 -1 -53 -25 -53 l-25 0 0 110 0 110 25 0 c22 0 25 -4 25 -36z m-830 1 c0
-8 7 -15 15 -15 8 0 15 -9 15 -20 0 -11 -7 -20 -15 -20 -11 0 -15 -12 -15 -45
0 -33 4 -45 15 -45 8 0 15 -9 15 -20 0 -15 -7 -20 -28 -20 -40 0 -52 17 -52
77 0 29 -4 53 -10 53 -5 0 -10 9 -10 20 0 11 5 20 10 20 6 0 10 7 10 15 0 9 9
15 25 15 16 0 25 -6 25 -15z m11264 -77 c14 -38 21 -68 16 -68 -5 0 -12 9 -15
20 -9 30 -71 28 -78 -2 -4 -12 -9 -20 -12 -16 -3 3 6 38 21 77 15 40 30 69 35
64 4 -4 19 -38 33 -75z m750 72 c14 -5 26 -15 26 -21 0 -8 -4 -8 -14 1 -20 16
-60 9 -64 -11 -2 -10 11 -21 38 -32 41 -16 52 -41 28 -65 -23 -23 -88 -9 -88
20 0 4 13 0 29 -10 24 -14 31 -14 45 -3 25 21 19 31 -23 48 -48 19 -57 37 -31
63 23 23 21 23 54 10z m181 0 c3 -5 1 -10 -4 -10 -6 0 -11 5 -11 10 0 6 2 10
4 10 3 0 8 -4 11 -10z m513 -6 c19 -5 15 -62 -5 -73 -19 -10 -25 -11 -47 -11
-8 0 -17 -12 -19 -27 -2 -16 -5 4 -6 43 0 39 2 74 5 77 6 6 37 2 72 -9z m252
6 c0 -5 -4 -10 -10 -10 -5 0 -10 5 -10 10 0 6 5 10 10 10 6 0 10 -4 10 -10z
m728 -6 c12 -8 22 -20 22 -26 0 -6 -8 -4 -18 5 -22 20 -53 22 -70 5 -20 -20
-15 -86 7 -98 27 -14 37 -13 56 6 9 9 18 14 21 11 9 -9 -27 -37 -49 -37 -28 0
-41 9 -56 37 -17 34 -13 62 14 88 28 29 42 31 73 9z m-2358 -13 c0 -14 6 -17
24 -14 17 4 28 -2 40 -18 32 -47 9 -89 -47 -87 l-32 1 -1 69 c0 37 3 68 8 68
4 0 8 -8 8 -19z m757 -4 c-7 -26 9 -58 21 -42 4 6 16 17 27 25 16 12 16 9 -3
-11 l-23 -26 26 -32 c15 -17 22 -31 17 -31 -6 0 -19 11 -30 25 -11 14 -23 25
-26 25 -3 0 -6 -11 -6 -25 0 -14 -4 -25 -10 -25 -6 0 -10 30 -10 70 0 45 4 70
11 70 7 0 9 -9 6 -23z m150 -84 c-2 -21 -4 -4 -4 37 0 41 2 58 4 38 2 -21 2
-55 0 -75z m53 35 c0 -52 -3 -69 -10 -58 -12 18 -10 130 2 130 4 0 8 -33 8
-72z m-13624 41 c10 -8 14 -33 14 -80 l0 -69 -42 0 c-24 0 -51 0 -61 -1 -47
-1 -64 58 -25 85 12 9 35 16 50 16 16 0 28 4 28 9 0 18 -22 23 -45 11 -13 -7
-32 -9 -42 -6 -16 7 -15 10 11 33 23 20 37 24 64 20 18 -4 40 -11 48 -18z m94
10 c0 -8 5 -8 15 1 8 7 22 9 31 6 23 -9 13 -39 -16 -46 -23 -5 -25 -11 -28
-63 -3 -53 -5 -57 -27 -57 -25 0 -25 1 -25 85 0 84 0 85 25 85 14 0 25 -5 25
-11z m188 -5 c19 -13 22 -24 22 -84 l0 -68 -47 -4 c-62 -6 -97 9 -101 44 -4
31 28 58 70 58 18 0 28 5 28 15 0 8 -9 15 -20 15 -11 0 -20 -4 -20 -10 0 -5
-12 -10 -26 -10 -33 0 -29 29 6 47 34 17 61 16 88 -3z m102 6 c0 -7 7 -7 21 1
16 8 28 8 45 0 17 -8 31 -7 49 1 56 25 85 -15 85 -118 0 -42 -1 -44 -30 -44
-29 0 -29 1 -32 63 -2 47 -7 62 -18 62 -11 0 -16 -15 -18 -62 -3 -59 -4 -63
-27 -63 -23 0 -25 3 -25 53 0 58 -15 84 -37 66 -8 -7 -13 -33 -13 -65 0 -51
-1 -54 -25 -54 -25 0 -25 1 -25 85 0 84 0 85 25 85 14 0 25 -5 25 -10z m371
-19 c23 -29 25 -88 3 -120 -13 -19 -24 -22 -55 -19 -38 3 -39 3 -39 -29 0 -30
-3 -33 -30 -33 l-30 0 0 108 c0 60 3 111 6 115 3 3 33 4 66 3 50 -2 64 -6 79
-25z m149 3 c0 -16 -7 -24 -22 -26 -20 -3 -23 -10 -26 -60 -3 -57 -4 -58 -32
-58 l-30 0 0 78 c0 43 2 81 6 84 3 3 27 5 55 5 44 -1 49 -3 49 -23z m141 -3
c16 -16 29 -39 29 -50 0 -19 -6 -21 -55 -21 -40 0 -55 -4 -55 -14 0 -18 30
-30 44 -16 16 16 56 12 56 -6 0 -20 -58 -44 -92 -37 -66 13 -87 104 -35 149
38 32 72 30 108 -5z m172 7 c14 -13 28 -35 31 -50 6 -27 6 -27 -54 -30 -59 -3
-61 -4 -46 -23 13 -17 18 -18 35 -7 24 14 61 16 61 3 0 -17 -31 -41 -53 -42
-46 -3 -63 3 -84 27 -69 76 35 190 110 122z m487 -63 c0 -84 0 -85 -25 -85
-25 0 -25 1 -25 85 0 84 0 85 25 85 25 0 25 -1 25 -85z m80 75 c0 -7 6 -7 19
0 29 15 49 12 71 -10 16 -16 20 -33 20 -85 0 -63 -1 -65 -25 -65 -24 0 -25 3
-25 53 0 55 -13 79 -36 70 -10 -4 -14 -23 -14 -64 0 -59 0 -59 -30 -59 l-30 0
0 78 c0 43 3 82 7 85 10 11 43 8 43 -3z m231 0 c13 -8 19 -7 19 0 0 6 10 10
23 8 21 -3 22 -8 25 -92 3 -104 -9 -132 -62 -141 -36 -7 -86 10 -93 32 -6 16
36 28 50 14 10 -10 47 -16 47 -7 0 2 3 11 6 19 4 13 -2 14 -34 10 -34 -5 -42
-2 -61 23 -18 23 -22 37 -18 69 8 60 52 89 98 65z m11027 -10 c15 -1 15 -2 0
-11 -12 -6 -18 -22 -18 -44 0 -22 6 -38 18 -45 15 -10 15 -10 -3 -8 -16 3 -21
12 -23 43 -2 22 -7 44 -12 49 -5 5 -3 14 3 21 7 7 14 9 15 4 2 -5 11 -9 20 -9z
m1541 -14 c-13 -14 -11 -70 4 -85 10 -11 9 -13 -3 -9 -9 3 -16 20 -18 44 -2
21 -7 43 -12 48 -14 14 12 35 26 22 8 -7 9 -15 3 -20z m759 17 c12 -12 13 -18
4 -21 -15 -5 -16 -64 0 -80 9 -9 8 -12 -5 -12 -17 0 -18 3 -21 57 0 17 -4 34
-8 38 -7 7 0 35 9 35 2 0 12 -8 21 -17z m298 3 c9 -9 10 -17 4 -21 -14 -9 -13
-68 2 -83 9 -9 8 -12 -5 -12 -16 0 -20 11 -30 74 -5 29 0 56 10 56 2 0 11 -6
19 -14z m-2796 -21 c29 -35 7 -95 -36 -95 -40 0 -59 63 -28 94 20 20 48 20 64
1z m60 -29 c0 -27 5 -46 13 -49 26 -9 37 6 37 49 0 24 5 44 10 44 6 0 10 -24
10 -53 l0 -54 -35 -1 c-19 -1 -37 4 -41 10 -10 16 -12 98 -2 98 4 0 8 -20 8
-44z m617 -38 c-2 -18 -4 -6 -4 27 0 33 2 48 4 33 2 -15 2 -42 0 -60z m201 62
c5 -13 3 -13 -12 -1 -15 12 -19 12 -33 -2 -15 -15 -14 -16 10 -22 38 -10 53
-31 37 -51 -16 -18 -62 -15 -68 6 -5 13 -3 13 11 1 18 -14 47 -9 47 9 0 6 -13
16 -30 21 -32 12 -38 27 -18 47 16 16 50 11 56 -8z m405 8 c-19 -9 -23 -19
-23 -55 0 -55 -16 -49 -18 8 -2 51 0 54 35 56 27 2 27 1 6 -9z m115 -21 c12
-24 11 -31 -2 -53 -28 -42 -86 -21 -86 31 0 56 64 72 88 22z m47 -94 c-3 -13
-9 -23 -14 -23 -6 0 -6 12 -2 28 4 15 7 45 6 67 -2 22 0 45 4 50 8 13 14 -92
6 -122z m109 111 c28 -28 20 -44 -24 -44 -43 0 -50 -9 -24 -31 12 -10 20 -10
35 -1 26 16 34 15 19 -3 -15 -18 -51 -20 -68 -3 -7 7 -12 26 -12 43 0 51 41
73 74 39z m110 10 c9 -3 16 -10 16 -15 0 -6 -9 -5 -21 1 -40 22 -70 -40 -33
-71 13 -10 19 -10 36 0 16 10 19 10 16 -1 -7 -19 -53 -22 -68 -3 -16 19 -16
60 0 80 13 16 29 19 54 9z m184 -14 c5 -13 3 -13 -11 -1 -18 14 -47 9 -47 -8
0 -6 11 -13 25 -17 36 -9 51 -30 35 -50 -16 -18 -62 -15 -68 6 -5 13 -3 13 11
1 19 -15 51 -7 45 11 -3 7 -15 15 -29 18 -27 7 -38 38 -17 51 19 13 51 7 56
-11z m456 4 c31 -31 12 -94 -28 -94 -29 0 -48 22 -48 55 0 49 44 72 76 39z
m122 -44 c1 -49 1 -50 -3 -8 -7 78 -58 74 -66 -5 -3 -37 -4 -35 -5 13 l-2 56
38 -1 37 0 1 -55z m182 48 c7 -7 12 -31 12 -54 l0 -42 -37 1 c-33 2 -38 5 -38
27 0 20 6 26 28 28 15 2 27 10 27 17 0 20 -20 29 -33 16 -17 -17 -31 -13 -17
4 15 18 42 19 58 3z m106 6 c9 -3 16 -10 16 -16 0 -5 -7 -5 -17 1 -41 22 -74
-39 -37 -70 13 -10 19 -10 36 0 16 10 19 10 16 -1 -6 -18 -46 -22 -64 -8 -17
15 -19 71 -2 88 13 13 28 15 52 6z m-6804 -1659 c22 -26 8 -50 -30 -50 -25 0
-36 5 -38 18 -5 23 15 47 38 47 10 0 23 -7 30 -15z m-2809 -43 c36 -41 40
-105 9 -145 -21 -27 -74 -47 -122 -47 -27 0 -28 -2 -28 -50 l0 -50 -40 0 -40
0 0 166 0 166 96 -4 c94 -3 96 -4 125 -36z m2648 24 c25 -13 51 -52 51 -76 0
-19 -65 -11 -83 10 -22 26 -73 27 -87 1 -7 -15 -6 -23 6 -35 8 -9 21 -16 27
-16 32 0 92 -24 113 -45 36 -36 33 -95 -6 -128 -36 -31 -95 -42 -148 -27 -43
11 -82 50 -82 81 0 28 65 27 80 -1 8 -15 21 -20 49 -20 73 0 79 52 7 70 -69
19 -74 20 -100 41 -28 22 -35 73 -16 109 25 46 130 66 189 36z m851 -42 c0
-55 0 -55 22 -40 34 24 85 20 113 -9 23 -22 25 -31 25 -125 l0 -100 -35 0 -35
0 0 78 c0 91 -13 118 -52 109 -31 -8 -38 -30 -38 -119 l0 -68 -35 0 -35 0 0
165 0 165 35 0 35 0 0 -56z m-1240 7 c0 -23 5 -30 23 -33 16 -2 22 -10 22 -28
0 -18 -6 -26 -22 -28 -21 -3 -23 -9 -23 -68 0 -52 3 -66 18 -71 38 -14 43 -48
8 -57 -31 -8 -84 11 -96 34 -6 10 -10 50 -10 89 0 56 -3 71 -15 71 -10 0 -15
10 -15 30 0 20 5 30 15 30 9 0 15 9 15 23 0 31 7 37 47 37 30 0 33 -3 33 -29z
m-2003 -65 c21 -24 23 -37 23 -122 l0 -94 -35 0 c-19 0 -35 5 -35 10 0 6 -14
3 -32 -6 -26 -13 -38 -14 -69 -5 -98 29 -70 132 40 147 40 5 51 11 51 24 0 25
-29 33 -56 15 -24 -16 -84 -21 -84 -7 0 15 33 54 54 63 11 5 43 7 70 5 39 -3
55 -9 73 -30z m143 24 c0 -7 6 -7 19 0 11 5 29 10 40 10 17 0 21 -6 21 -30 0
-25 -4 -30 -24 -30 -44 0 -56 -24 -56 -111 l0 -79 -40 0 -40 0 0 125 0 125 40
0 c22 0 40 -5 40 -10z m297 -24 c21 -24 23 -37 23 -122 l0 -95 -52 0 c-29 0
-73 -1 -97 -2 -35 -1 -48 4 -62 22 -44 55 -9 114 76 128 33 6 51 14 53 24 4
24 -27 32 -54 14 -30 -19 -84 -20 -84 -1 0 8 14 26 32 41 28 24 38 27 87 23
44 -4 59 -10 78 -32z m133 18 c0 -14 2 -14 22 0 12 9 34 16 48 16 14 0 36 -7
48 -16 20 -14 24 -14 44 0 25 18 70 21 98 6 27 -15 40 -64 40 -156 l0 -84 -40
0 -40 0 0 84 c0 64 -4 87 -16 97 -11 9 -20 10 -32 2 -13 -8 -18 -29 -20 -97
l-3 -86 -34 0 -35 0 0 84 c0 64 -4 87 -16 97 -11 9 -20 10 -32 2 -13 -8 -18
-29 -20 -97 l-3 -86 -39 0 -40 0 0 125 0 125 35 0 c25 0 35 -4 35 -16z m420
-1 c0 -15 1 -15 18 0 29 26 77 21 113 -11 27 -24 33 -37 36 -83 5 -71 -18
-118 -69 -137 -32 -12 -41 -12 -67 1 l-31 15 0 -54 0 -54 -40 0 -40 0 0 170 0
170 40 0 c31 0 40 -4 40 -17z m280 1 c0 -14 1 -14 16 0 8 9 26 16 40 16 20 0
24 -5 24 -30 0 -24 -4 -30 -22 -30 -44 0 -58 -27 -58 -112 l0 -78 -35 0 -35 0
0 125 0 125 35 0 c25 0 35 -4 35 -16z m264 6 c33 -12 66 -66 66 -107 l0 -33
-86 0 -86 0 14 -22 c19 -29 54 -35 78 -13 13 12 26 14 50 8 l32 -8 -21 -27
c-37 -47 -126 -59 -171 -25 -70 53 -66 182 8 221 32 18 80 20 116 6z m270 0
c33 -12 66 -66 66 -107 l0 -33 -86 0 -86 0 14 -22 c19 -29 54 -35 78 -13 13
12 26 14 50 8 l32 -8 -21 -27 c-71 -90 -221 -37 -221 78 0 102 81 160 174 124z
m756 -115 l0 -125 -40 0 -40 0 0 125 0 125 40 0 40 0 0 -125z m117 114 c8 -8
17 -8 31 0 33 18 69 13 99 -13 27 -23 28 -29 31 -125 l4 -101 -41 0 -40 0 -3
86 c-2 70 -6 89 -20 98 -13 8 -23 8 -35 0 -15 -9 -19 -28 -21 -98 l-3 -86 -39
0 -40 0 0 125 0 125 33 0 c18 0 38 -5 44 -11z m351 -5 c20 -14 22 -14 22 0 0
12 10 16 35 16 l35 0 0 -145 c0 -140 -1 -147 -24 -170 -46 -46 -147 -45 -194
2 -20 20 -22 27 -11 34 18 11 69 12 69 0 0 -5 10 -11 22 -14 32 -9 68 18 68
49 0 24 -1 24 -22 10 -52 -37 -130 -3 -148 63 -30 114 65 214 148 155z m-5638
-799 c0 -50 -4 -85 -10 -85 -6 0 -10 35 -10 85 0 50 4 85 10 85 6 0 10 -35 10
-85z m47 38 c-3 -10 -5 -2 -5 17 0 19 2 27 5 18 2 -10 2 -26 0 -35z m1013 37
c0 -5 -7 -10 -16 -10 -8 0 -12 5 -9 10 3 6 10 10 16 10 5 0 9 -4 9 -10z m1030
-20 c0 -26 3 -29 18 -22 46 25 89 -37 61 -87 -12 -21 -22 -26 -57 -26 l-42 -1
0 83 c0 49 4 83 10 83 6 0 10 -14 10 -30z m280 -53 l0 -84 -39 -1 c-31 -1 -44
3 -55 20 -22 32 -20 55 9 84 20 20 28 23 45 14 15 -8 20 -8 21 2 1 7 2 18 4
23 1 6 3 13 3 18 1 4 4 7 7 7 3 0 5 -38 5 -83z m437 -8 c1 -46 -2 -79 -7 -79
-6 0 -10 38 -10 87 0 107 14 101 17 -8z m783 81 c0 -5 -4 -10 -10 -10 -5 0
-10 5 -10 10 0 6 5 10 10 10 6 0 10 -4 10 -10z m140 -20 c0 -26 3 -29 18 -22
39 21 62 -5 62 -70 0 -65 -18 -61 -22 5 -3 48 -5 52 -28 52 -23 0 -25 -4 -28
-52 -5 -86 -22 -60 -22 32 0 50 4 85 10 85 6 0 10 -14 10 -30z m1136 -30 c3 0
14 4 24 10 28 15 63 -18 62 -59 0 -18 -6 -39 -13 -47 -14 -17 -55 -19 -65 -3
-4 7 0 9 14 5 22 -7 52 16 52 40 0 27 -20 54 -40 54 -24 0 -44 -34 -36 -64 3
-11 1 -28 -4 -36 -7 -10 -9 15 -8 75 1 50 3 75 5 58 2 -18 7 -33 9 -33z m413
-16 c14 14 29 26 34 26 6 0 3 -8 -6 -18 -23 -26 -21 -41 10 -74 19 -20 22 -28
12 -28 -8 0 -26 14 -38 31 -24 33 -36 30 -44 -11 -2 -14 -4 16 -4 65 0 73 1
80 6 37 l6 -54 24 26z m791 -8 l0 -84 -42 2 c-34 1 -45 6 -57 27 -28 50 15
112 62 87 14 -7 17 -4 17 22 0 16 5 30 10 30 6 0 10 -35 10 -84z m120 74 c0
-5 -4 -10 -10 -10 -5 0 -10 5 -10 10 0 6 5 10 10 10 6 0 10 -4 10 -10z m250
-20 c0 -27 2 -30 19 -20 36 19 71 -12 71 -64 0 -37 -25 -56 -71 -54 l-39 1 0
84 c0 49 4 83 10 83 6 0 10 -14 10 -30z m270 20 c0 -5 -4 -10 -10 -10 -5 0
-10 5 -10 10 0 6 5 10 10 10 6 0 10 -4 10 -10z m50 -75 c0 -50 -4 -85 -10 -85
-6 0 -10 35 -10 85 0 50 4 85 10 85 6 0 10 -35 10 -85z m140 1 l0 -84 -42 2
c-34 1 -45 6 -57 27 -28 50 15 112 62 87 14 -7 17 -4 17 22 0 16 5 30 10 30 6
0 10 -35 10 -84z m50 74 c0 -5 -4 -10 -10 -10 -5 0 -10 5 -10 10 0 6 5 10 10
10 6 0 10 -4 10 -10z m806 -81 c0 -43 -2 -79 -6 -79 -12 0 -19 26 -13 48 12
48 -44 84 -67 42 -22 -41 8 -88 47 -73 11 4 14 3 9 -5 -11 -19 -54 -14 -66 7
-30 57 11 127 59 101 19 -10 21 -8 21 21 0 18 3 29 8 25 4 -4 7 -43 8 -87z
m-6246 55 c0 -8 5 -12 10 -9 6 3 10 1 10 -4 0 -6 -4 -11 -10 -11 -18 0 -12
-82 8 -96 16 -12 16 -13 -4 -14 -26 0 -34 17 -34 71 0 21 -5 39 -10 39 -6 0
-5 8 2 20 15 24 28 26 28 4z m2155 -22 c-21 -5 -22 -92 0 -92 8 0 15 -5 15
-11 0 -6 -8 -9 -17 -7 -14 2 -19 15 -21 53 -2 27 -8 53 -14 56 -7 5 -7 11 3
21 11 13 15 12 31 -1 16 -14 17 -16 3 -19z m588 0 c-20 -5 -17 -92 2 -92 8 0
15 -5 15 -11 0 -6 -8 -9 -17 -7 -14 2 -19 15 -21 56 -2 28 -7 52 -13 52 -5 0
-4 8 2 19 11 17 13 17 28 2 12 -12 13 -17 4 -19z m-4094 9 c8 -5 24 -6 36 -1
38 15 55 -5 55 -66 0 -34 -4 -53 -10 -49 -5 3 -10 29 -10 56 0 47 -2 50 -22
47 -20 -3 -23 -10 -26 -55 -2 -29 -7 -53 -12 -53 -5 0 -10 24 -12 53 -3 44 -6
52 -23 52 -17 0 -20 -8 -23 -52 -4 -73 -22 -67 -22 6 0 54 2 60 23 64 12 2 24
5 27 5 3 1 11 -2 19 -7z m273 -15 c4 -6 8 -32 8 -57 l0 -46 -39 -1 c-70 -3
-83 56 -15 68 37 7 47 40 12 40 -13 0 -29 -5 -36 -12 -9 -9 -12 -9 -12 0 0 29
64 36 82 8z m139 15 c44 23 90 -43 65 -93 -13 -26 -52 -36 -70 -18 -8 9 -6 11
10 6 41 -12 73 51 42 82 -29 29 -76 -5 -64 -46 2 -9 1 -37 -4 -62 -6 -37 -8
-29 -8 50 0 52 2 89 5 83 3 -10 10 -10 24 -2z m177 -7 c16 -11 22 -25 21 -47
-3 -59 -6 -63 -51 -62 -39 0 -43 2 -46 27 -3 23 1 28 25 33 46 11 53 14 53 25
0 17 -31 24 -51 11 -15 -9 -19 -8 -19 3 0 12 9 18 40 25 3 0 16 -6 28 -15z
m132 -3 c0 -4 -14 -5 -31 -3 -26 4 -30 2 -27 -14 2 -10 14 -21 27 -24 33 -8
49 -34 32 -54 -15 -18 -66 -22 -76 -5 -11 17 3 23 20 9 8 -7 22 -10 30 -6 26
10 16 33 -17 42 -42 12 -51 50 -17 63 24 8 59 4 59 -8z m106 5 c18 -14 17 -14
-11 -13 -43 3 -44 -15 -1 -36 37 -18 45 -34 24 -55 -17 -17 -63 -15 -78 3 -14
17 -7 19 20 5 22 -12 50 -3 50 15 0 6 -15 16 -32 21 -38 11 -49 41 -22 61 22
16 26 16 50 -1z m61 -83 c-2 -21 -4 -6 -4 32 0 39 2 55 4 38 2 -18 2 -50 0
-70z m121 81 c25 -17 31 -81 10 -102 -20 -20 -65 -14 -82 10 -22 32 -20 55 9
83 28 29 33 30 63 9z m133 6 c15 -9 19 -22 19 -65 0 -70 -18 -72 -22 -3 -2 42
-7 54 -22 56 -25 5 -36 -14 -36 -68 0 -33 -3 -41 -10 -30 -5 8 -10 37 -10 64
0 36 3 47 13 43 8 -3 20 -1 28 4 18 11 17 11 40 -1z m147 -62 l3 -55 -39 -1
c-71 -3 -84 56 -16 68 37 7 47 40 12 40 -13 0 -29 -5 -36 -12 -9 -9 -12 -9
-12 0 0 17 41 31 65 22 16 -6 21 -18 23 -62z m198 47 c32 -32 24 -45 -27 -45
-42 0 -52 -17 -23 -41 13 -10 19 -10 36 0 11 7 23 10 26 6 9 -9 -19 -25 -45
-25 -50 0 -72 71 -33 110 26 26 36 25 66 -5z m205 -20 c6 -25 14 -45 18 -45 4
0 12 21 19 46 7 26 15 44 19 40 8 -7 -27 -126 -37 -126 -4 0 -13 20 -20 46
-14 49 -24 48 -37 -5 -13 -49 -27 -48 -40 1 -7 24 -15 51 -18 61 -4 9 -3 17 3
17 5 0 15 -21 22 -47 l12 -48 10 30 c14 46 27 75 33 75 2 0 10 -20 16 -45z
m169 25 c34 -34 26 -50 -25 -50 -33 0 -45 -4 -45 -15 0 -22 36 -38 59 -25 28
14 35 12 21 -6 -8 -9 -25 -14 -44 -12 -58 6 -75 91 -24 116 32 15 35 15 58 -8z
m468 4 c12 -8 22 -24 22 -35 0 -16 -7 -19 -45 -19 -33 0 -45 -4 -45 -15 0 -22
36 -38 59 -25 28 14 36 12 21 -5 -15 -18 -64 -20 -78 -2 -6 6 -13 24 -17 39
-5 21 -1 33 19 52 29 30 34 31 64 10z m72 -32 c18 -56 27 -59 40 -14 6 23 16
44 22 48 7 5 9 -1 5 -18 -11 -40 -37 -98 -45 -98 -4 0 -16 24 -27 53 -10 28
-20 58 -23 66 -3 9 -1 12 6 8 6 -4 16 -24 22 -45z m180 28 c34 -34 26 -50 -25
-50 -33 0 -45 -4 -45 -15 0 -22 36 -38 59 -25 28 14 35 12 21 -6 -8 -9 -25
-14 -44 -12 -58 6 -75 91 -24 116 32 15 35 15 58 -8z m185 -5 c29 -28 31 -51
9 -83 -18 -26 -56 -29 -78 -6 -24 24 -20 80 6 98 30 21 35 20 63 -9z m94 14
c18 10 25 8 47 -14 20 -20 24 -32 19 -53 -4 -15 -11 -33 -17 -39 -13 -17 -54
-17 -65 0 -5 7 -10 -2 -14 -28 -4 -27 -7 -9 -7 55 -1 56 2 89 7 81 7 -10 13
-11 30 -2z m183 -13 c4 -6 8 -19 8 -28 0 -14 -9 -18 -40 -18 -43 0 -53 -17
-24 -41 13 -10 19 -10 36 0 11 7 23 10 26 6 9 -9 -19 -25 -45 -25 -52 0 -75
84 -31 114 23 16 57 12 70 -8z m98 14 c0 -5 -6 -10 -14 -10 -18 0 -26 -22 -26
-71 0 -21 -5 -39 -11 -39 -6 0 -9 23 -8 60 2 42 6 59 14 56 7 -2 18 0 26 5 18
11 19 11 19 -1z m698 -61 l3 -54 -39 -3 c-70 -4 -85 56 -16 68 37 7 47 40 12
40 -13 0 -29 -5 -36 -12 -9 -9 -12 -9 -12 0 0 17 41 31 65 22 16 -6 21 -18 23
-61z m168 57 c18 -14 17 -14 -11 -13 -41 3 -45 -15 -7 -32 36 -17 47 -38 31
-58 -15 -17 -71 -13 -77 5 -3 11 0 12 16 3 23 -12 52 -5 52 14 0 6 -15 16 -32
21 -38 11 -49 41 -22 61 22 16 26 16 50 -1z m164 4 c18 12 30 13 30 2 0 -4
-10 -12 -22 -17 -18 -8 -24 -21 -29 -60 -6 -48 -6 -47 -7 20 -1 39 2 65 6 58
5 -8 13 -9 22 -3z m128 -6 c15 -10 22 -25 22 -49 0 -41 -24 -67 -58 -63 -54 6
-69 98 -19 118 30 12 30 12 55 -6z m144 -8 c11 -16 10 -106 -1 -106 -6 0 -11
24 -13 53 -3 48 -5 52 -28 52 -23 0 -25 -4 -28 -52 -4 -73 -22 -67 -22 8 0 47
3 60 13 56 8 -3 20 -1 27 3 15 9 41 2 52 -14z m136 11 c9 3 12 -12 12 -59 0
-90 -28 -124 -84 -102 -28 11 -17 21 22 20 32 -1 37 2 40 22 3 21 1 22 -18 12
-17 -9 -26 -8 -46 5 -21 13 -25 23 -22 53 3 40 38 68 67 53 9 -5 22 -6 29 -4z
m320 -5 c12 -12 19 -35 20 -64 l2 -45 -47 1 c-44 1 -48 3 -51 28 -3 23 1 28
25 33 46 11 53 14 53 25 0 17 -31 24 -51 11 -15 -9 -19 -8 -19 3 0 13 13 20
43 25 4 0 15 -7 25 -17z m133 -2 c13 -10 19 -19 12 -20 -6 0 -15 5 -18 10 -10
17 -44 11 -55 -10 -13 -24 -3 -67 17 -74 8 -3 23 -1 33 4 27 14 34 12 20 -5
-18 -22 -67 -19 -80 4 -18 34 -12 78 12 95 28 20 31 20 59 -4z m252 8 c14 1
17 -9 17 -64 0 -84 -30 -119 -84 -98 -28 11 -17 21 22 20 31 -1 37 2 40 22 3
20 1 21 -22 11 -35 -16 -66 11 -66 57 0 36 34 69 60 58 8 -4 23 -6 33 -6z
m107 3 c0 -5 -9 -11 -20 -14 -17 -4 -20 -14 -20 -56 0 -28 -4 -51 -10 -51 -6
0 -10 27 -10 61 0 47 3 60 13 56 8 -3 20 -1 28 4 18 11 19 11 19 0z m113 -15
c42 -63 -25 -142 -77 -90 -24 24 -20 80 6 98 23 16 57 12 71 -8z m251 8 c18
-17 23 -120 6 -109 -5 3 -10 26 -10 51 0 31 -5 46 -15 50 -26 11 -45 -16 -45
-63 0 -28 -4 -42 -10 -38 -15 9 -10 117 5 111 6 -2 18 0 26 5 19 12 25 11 43
-7z m387 6 c15 -9 19 -22 19 -65 0 -70 -18 -72 -22 -3 -2 42 -7 54 -22 56 -25
5 -36 -14 -36 -65 0 -24 -5 -43 -11 -43 -6 0 -9 23 -8 60 2 42 6 59 14 56 7
-2 18 0 26 5 18 11 17 11 40 -1z m769 -10 c14 -14 19 -31 17 -65 -2 -62 -15
-57 -19 8 -3 48 -5 52 -28 52 -22 0 -25 -5 -28 -45 -5 -72 -22 -73 -22 -1 0
51 3 62 15 58 8 -4 17 -2 20 3 9 15 23 12 45 -10z m133 6 c14 0 17 -11 17 -73
0 -61 -3 -74 -19 -83 -27 -14 -56 -13 -70 4 -10 12 -6 13 27 9 36 -5 40 -3 44
21 6 28 -1 33 -19 15 -15 -15 -51 -2 -64 23 -21 38 16 107 50 92 9 -4 24 -7
34 -8z m226 4 c38 20 51 3 49 -64 l-1 -61 -6 55 c-6 50 -8 55 -31 55 -23 0
-25 -4 -28 -52 -4 -71 -22 -68 -22 3 0 52 -1 55 -22 52 -20 -3 -23 -10 -26
-55 -4 -73 -22 -67 -22 8 0 47 3 60 13 56 8 -3 20 -1 27 3 8 5 22 4 32 -1 12
-6 25 -6 37 1z m169 -6 c15 -10 22 -25 22 -49 0 -41 -24 -67 -58 -63 -54 6
-69 98 -19 118 30 12 30 12 55 -6z m270 0 c12 -8 22 -24 22 -35 0 -16 -7 -19
-45 -19 -25 0 -45 -4 -45 -9 0 -17 32 -42 46 -37 50 21 50 21 35 3 -20 -25
-67 -22 -85 5 -22 32 -20 55 9 83 28 29 33 30 63 9z m112 7 c0 -5 -9 -11 -20
-14 -17 -4 -20 -14 -20 -56 0 -28 -4 -51 -10 -51 -6 0 -10 27 -10 61 0 50 3
60 15 56 8 -4 17 -2 20 3 8 12 25 13 25 1z m101 -1 c15 -9 19 -22 19 -65 0
-70 -18 -72 -22 -3 -2 42 -7 54 -22 56 -25 5 -36 -14 -36 -65 0 -24 -4 -43
-10 -43 -6 0 -10 27 -10 61 0 47 3 60 13 56 8 -3 20 -1 28 4 18 11 17 11 40
-1z m-4667 -45 c9 -45 20 -45 32 2 13 53 29 51 44 -4 l13 -48 14 48 c8 26 18
47 23 47 10 0 -17 -100 -31 -114 -8 -9 -29 32 -29 59 0 34 -21 21 -31 -20 -6
-25 -15 -45 -19 -45 -9 0 -40 85 -40 107 0 27 18 3 24 -32z m176 -15 c0 -35
-4 -60 -11 -60 -6 0 -9 23 -8 60 1 33 6 60 11 60 4 0 8 -27 8 -60z m2160 -35
c23 0 25 4 28 48 4 67 22 59 22 -11 l0 -58 -40 -1 c-46 -2 -63 18 -59 70 5 54
14 55 19 2 5 -45 7 -50 30 -50z m439 35 c1 -37 -2 -60 -8 -60 -7 0 -11 25 -11
60 0 33 4 60 8 60 5 0 10 -27 11 -60z m390 38 c-1 -13 -1 -36 -1 -51 2 -25 6
-28 30 -25 25 3 27 7 32 53 3 29 8 45 13 38 10 -16 6 -113 -5 -113 -4 0 -8 5
-8 10 0 6 -8 5 -20 -2 -34 -21 -55 1 -58 61 -2 32 1 51 8 51 6 0 10 -10 9 -22z
m130 -32 c1 -30 -3 -57 -9 -61 -6 -4 -10 16 -10 54 0 76 16 81 19 7z m241 -6
c0 -35 -4 -60 -10 -60 -6 0 -10 24 -9 60 1 33 6 60 10 60 5 0 9 -27 9 -60z
m1210 -57 c0 -10 -5 -25 -10 -33 -7 -11 -10 -7 -10 18 0 17 5 32 10 32 6 0 10
-8 10 -17z m-5710 -193 c0 -5 -4 -10 -10 -10 -5 0 -10 5 -10 10 0 6 5 10 10
10 6 0 10 -4 10 -10z m770 -73 l0 -83 -42 1 c-35 0 -45 5 -57 26 -27 48 18
112 61 88 12 -7 17 -2 22 21 10 52 16 33 16 -53z m704 68 c-16 -13 -17 -16 -4
-26 11 -8 12 -12 3 -16 -8 -3 -13 -25 -13 -59 0 -30 -4 -54 -10 -54 -5 0 -10
25 -10 55 0 30 -4 55 -9 55 -5 0 -3 14 5 30 10 19 23 30 37 30 20 0 20 0 1
-15z m146 5 c0 -5 -7 -10 -16 -10 -8 0 -12 5 -9 10 3 6 10 10 16 10 5 0 9 -4
9 -10z m398 -62 c1 -74 -6 -108 -19 -87 -4 8 -6 24 -3 35 13 50 -43 87 -66 44
-22 -41 8 -88 47 -73 11 4 14 3 9 -5 -9 -16 -49 -15 -64 0 -7 7 -12 29 -12 49
0 47 29 73 66 59 22 -9 24 -7 24 21 0 59 17 19 18 -43z m52 -13 c0 -50 -4 -85
-10 -85 -6 0 -10 35 -10 85 0 50 4 85 10 85 6 0 10 -35 10 -85z m571 36 c48
25 89 -46 59 -102 -12 -21 -54 -26 -66 -8 -4 8 -9 7 -15 -2 -5 -8 -8 23 -7 76
1 50 3 75 5 57 4 -29 6 -31 24 -21z m576 -84 c-2 -23 -3 -1 -3 48 0 50 1 68 3
42 2 -26 2 -67 0 -90z m63 123 c0 -5 -4 -10 -10 -10 -5 0 -10 5 -10 10 0 6 5
10 10 10 6 0 10 -4 10 -10z m390 0 c0 -5 -4 -10 -10 -10 -5 0 -10 5 -10 10 0
6 5 10 10 10 6 0 10 -4 10 -10z m-67 -48 c-20 -5 -17 -92 2 -92 8 0 15 -5 15
-11 0 -6 -8 -9 -17 -7 -14 2 -19 15 -21 56 -2 28 -7 52 -13 52 -5 0 -4 8 2 19
11 17 13 17 28 2 12 -12 13 -17 4 -19z m-4413 9 c0 -5 -9 -11 -20 -14 -17 -4
-20 -14 -20 -56 0 -28 -4 -51 -10 -51 -6 0 -10 27 -10 61 0 47 3 60 13 56 8
-3 20 -1 28 4 18 11 19 11 19 0z m98 -7 c12 -8 22 -24 22 -35 0 -16 -7 -19
-39 -19 -22 0 -42 -4 -46 -9 -8 -14 25 -43 41 -37 50 21 50 21 35 3 -17 -21
-55 -22 -75 -1 -24 24 -20 80 6 98 12 9 25 16 28 16 3 0 16 -7 28 -16z m128 2
c18 -13 17 -14 -16 -13 -41 2 -50 -24 -11 -33 52 -12 49 -70 -3 -70 -26 0 -53
16 -43 26 3 4 13 1 22 -6 8 -7 22 -10 30 -6 25 9 17 34 -15 41 -37 8 -50 43
-24 62 23 17 35 16 60 -1z m148 -34 c13 -46 -15 -86 -55 -80 -28 4 -33 -1 -30
-29 1 -6 -3 -14 -9 -18 -6 -4 -10 24 -10 80 0 69 3 86 13 82 8 -3 20 -1 27 3
22 14 54 -6 64 -38z m116 28 c41 -41 15 -114 -38 -108 -54 6 -69 98 -19 118
32 13 35 12 57 -10z m134 4 c10 -10 16 -33 16 -65 0 -66 -18 -63 -22 4 -3 48
-5 52 -28 52 -23 0 -25 -4 -28 -52 -4 -73 -22 -67 -22 8 0 47 3 60 13 56 8 -3
20 -1 28 4 19 12 25 11 43 -7z m126 -3 c0 -4 -12 -7 -27 -6 -35 0 -38 -27 -4
-35 52 -12 49 -70 -3 -70 -26 0 -53 16 -43 26 3 4 13 2 20 -5 17 -13 47 -4 47
14 0 7 -12 16 -27 20 -46 11 -59 50 -21 64 23 8 58 4 58 -8z m289 9 c11 0 31
-47 24 -54 -4 -3 -24 -6 -45 -6 -41 0 -51 -17 -22 -41 13 -10 19 -10 36 0 11
7 23 10 26 6 9 -9 -19 -25 -45 -25 -52 0 -75 84 -31 115 13 8 29 13 36 10 8
-3 17 -5 21 -5z m252 0 c15 -9 19 -22 19 -63 l0 -53 -42 1 c-39 0 -43 2 -46
27 -3 23 1 28 25 33 46 11 53 14 53 25 0 17 -31 24 -51 12 -12 -8 -20 -8 -24
-2 -4 6 4 14 17 19 30 13 26 13 49 1z m154 -43 c4 -28 2 -60 -6 -77 -1 -3 -5
20 -8 50 -5 43 -10 56 -25 58 -27 6 -37 -10 -38 -57 0 -23 -4 -44 -9 -47 -5
-3 -9 23 -9 56 0 48 3 61 13 57 8 -3 20 -1 27 3 22 14 49 -7 55 -43z m441 39
c18 -13 17 -14 -16 -13 -41 2 -50 -24 -11 -33 13 -3 29 -13 34 -22 23 -36 -45
-67 -73 -33 -14 17 0 21 17 4 15 -15 43 -4 43 15 0 9 -11 18 -25 22 -59 15
-56 60 6 73 3 0 14 -5 25 -13z m122 -2 c12 -8 22 -24 22 -35 0 -16 -7 -19 -39
-19 -47 0 -57 -11 -32 -34 15 -14 24 -15 40 -7 28 15 36 14 21 -4 -16 -20 -54
-19 -74 1 -24 24 -20 80 6 98 12 9 25 16 28 16 3 0 16 -7 28 -16z m112 7 c0
-5 -9 -11 -20 -14 -17 -4 -20 -14 -20 -56 0 -28 -4 -51 -10 -51 -6 0 -10 27
-10 61 0 50 3 60 15 56 8 -4 17 -2 20 3 8 12 25 13 25 1z m260 0 c0 -5 -9 -11
-20 -14 -17 -4 -20 -14 -20 -56 0 -28 -4 -51 -10 -51 -6 0 -10 27 -10 61 0 50
3 60 15 56 8 -4 17 -2 20 3 8 12 25 13 25 1z m37 -88 c-2 -21 -4 -6 -4 32 0
39 2 55 4 38 2 -18 2 -50 0 -70z m121 81 c12 -8 22 -24 22 -35 0 -16 -7 -19
-45 -19 -33 0 -45 -4 -45 -15 0 -22 36 -38 59 -25 28 14 36 12 21 -5 -19 -23
-66 -19 -84 7 -22 32 -20 55 9 83 28 29 33 30 63 9z m145 -21 c9 -35 7 -93 -2
-93 -6 0 -11 24 -13 52 -2 42 -7 54 -22 56 -28 6 -39 -12 -39 -62 0 -25 -4
-46 -8 -46 -5 0 -9 27 -9 61 0 47 3 60 13 56 8 -3 20 -1 27 3 18 11 47 -5 53
-27z m257 -18 c7 -24 16 -43 19 -40 4 2 13 22 21 44 7 23 17 41 23 41 5 0 6
-8 2 -17 -4 -10 -16 -44 -27 -76 -11 -31 -29 -62 -39 -68 -24 -12 -25 -1 -2
16 16 12 16 17 -5 76 -24 70 -27 83 -13 75 4 -3 14 -26 21 -51z m418 39 c12
-8 22 -24 22 -35 0 -16 -7 -19 -39 -19 -47 0 -57 -11 -32 -34 15 -14 24 -15
40 -7 28 15 36 14 21 -4 -14 -17 -43 -19 -71 -5 -28 16 -27 84 3 104 12 9 25
16 28 16 3 0 16 -7 28 -16z m344 -8 c4 -6 8 -32 8 -57 l0 -46 -39 -1 c-70 -3
-83 56 -15 68 37 7 47 40 12 40 -13 0 -29 -5 -36 -12 -9 -9 -12 -9 -12 0 0 29
64 36 82 8z m128 4 c37 -37 17 -110 -30 -110 -10 0 -22 5 -26 12 -5 8 -2 9 11
5 26 -11 45 11 45 50 0 63 -64 55 -66 -8 -1 -19 -2 -51 -3 -72 -2 -73 -19 -27
-19 54 0 61 3 79 12 76 7 -3 19 -1 27 4 20 13 27 11 49 -11z m151 -22 c18 -44
-5 -83 -49 -83 -26 0 -32 -4 -32 -22 0 -12 -4 -25 -10 -28 -6 -4 -10 25 -10
80 0 69 3 86 13 82 8 -3 20 -2 27 3 21 13 48 -1 61 -32z m233 16 c7 -17 1 -18
-23 -2 -39 24 -70 -18 -47 -64 12 -24 26 -26 61 -12 18 7 18 6 6 -9 -17 -21
-55 -22 -75 -1 -30 29 -15 94 24 106 22 7 48 -2 54 -18z m107 16 c15 -9 19
-22 19 -63 l0 -52 -40 -3 c-31 -2 -41 2 -50 18 -14 27 1 48 38 52 17 2 28 10
30 22 4 17 0 18 -32 13 -41 -7 -47 -1 -13 13 29 11 26 11 48 0z m282 -14 c42
-63 -25 -142 -77 -90 -24 24 -20 80 6 98 23 16 57 12 71 -8z m81 14 c40 15 56
-4 54 -68 -1 -36 -3 -44 -5 -22 -6 65 -13 80 -33 80 -24 0 -33 -15 -41 -70 -6
-40 -6 -37 -7 25 0 39 2 65 4 58 4 -8 13 -9 28 -3z m162 -4 c18 -13 17 -14
-15 -13 -42 2 -53 -20 -14 -29 38 -9 55 -31 42 -55 -12 -23 -61 -25 -79 -4
-14 17 -7 19 20 5 20 -11 50 -4 50 12 0 5 -16 16 -35 24 -39 16 -47 46 -17 63
23 14 25 13 48 -3z m-4039 -56 c0 -33 -4 -60 -9 -60 -4 0 -8 27 -8 60 0 33 4
60 9 60 5 0 9 -27 8 -60z m63 15 c14 -52 25 -50 41 5 7 22 16 40 22 40 5 0 6
-8 2 -17 -4 -10 -14 -37 -22 -60 -8 -24 -19 -43 -23 -43 -5 0 -18 25 -29 55
-24 63 -24 65 -12 65 4 0 14 -20 21 -45z m832 -2 c3 -44 5 -48 28 -48 23 0 25
4 28 48 4 67 22 59 22 -11 l0 -58 -40 -1 c-35 -2 -42 2 -50 23 -13 33 -13 94
-1 94 6 0 11 -21 13 -47z m1424 2 c8 -46 18 -44 33 5 15 51 27 51 41 0 13 -47
25 -45 34 5 4 19 12 35 18 35 5 0 7 -7 4 -16 -4 -9 -11 -36 -17 -60 -6 -24
-15 -44 -19 -44 -5 0 -14 17 -20 38 -19 56 -26 58 -39 8 -6 -25 -15 -46 -20
-46 -8 0 -41 93 -41 115 0 20 20 -11 26 -40z m964 -15 c0 -33 -4 -60 -10 -60
-6 0 -10 27 -10 60 0 33 4 60 10 60 6 0 10 -27 10 -60z m388 12 c1 -26 -3 -54
-8 -62 -7 -10 -10 5 -10 48 0 34 4 62 9 62 5 0 9 -22 9 -48z m-2268 -2 c0 -5
-16 -10 -35 -10 -19 0 -35 5 -35 10 0 6 16 10 35 10 19 0 35 -4 35 -10z m2707
-66 c-9 -9 -28 6 -21 18 4 6 10 6 17 -1 6 -6 8 -13 4 -17z m-3797 -1 c0 -10
-5 -25 -10 -33 -7 -11 -10 -7 -10 18 0 17 5 32 10 32 6 0 10 -8 10 -17z m1005
-418 l25 -24 0 -236 0 -236 -25 -24 -24 -25 -656 0 -656 0 -24 25 -25 24 0
236 0 236 25 24 24 25 656 0 656 0 24 -25z m697 -200 c0 -5 -5 -11 -11 -13 -6
-2 -11 4 -11 13 0 9 5 15 11 13 6 -2 11 -8 11 -13z m618 0 c0 -8 -4 -15 -9
-15 -13 0 -22 16 -14 24 11 11 23 6 23 -9z m-730 -41 c14 -50 22 -48 40 9 6
20 18 37 25 37 10 0 8 -15 -8 -65 -27 -83 -48 -87 -73 -12 -9 28 -19 58 -22
65 -2 6 3 12 11 12 9 0 19 -18 27 -46z m517 27 c4 -16 11 -18 39 -14 34 6 48
-9 19 -21 -9 -3 -15 -19 -15 -41 0 -24 -5 -35 -15 -35 -11 0 -14 9 -11 33 5
43 -1 50 -24 27 -11 -11 -29 -20 -40 -20 -13 0 -20 -7 -20 -20 0 -11 -4 -20
-10 -20 -6 0 -10 28 -10 65 l0 65 41 0 c32 0 42 -4 46 -19z m471 -8 c12 -12
13 -18 4 -21 -14 -4 -17 -62 -2 -62 6 0 10 -4 10 -10 0 -5 -9 -10 -20 -10 -17
0 -20 7 -20 39 0 22 -5 41 -12 43 -9 3 -8 9 2 21 19 20 18 20 38 0z m-878 -53
c0 -27 -4 -50 -10 -50 -5 0 -10 23 -10 50 0 28 5 50 10 50 6 0 10 -22 10 -50z
m98 38 c7 -7 12 -20 12 -30 0 -14 -8 -18 -36 -18 -22 0 -33 -4 -29 -11 4 -6
19 -7 36 -4 24 5 28 4 23 -9 -10 -26 -61 -20 -80 9 -15 23 -15 27 0 50 18 27
54 33 74 13z m50 -16 c4 -27 22 -19 22 9 0 29 27 23 38 -8 l10 -28 7 28 c4 15
13 27 21 27 8 0 14 -1 14 -2 0 -2 -6 -23 -14 -48 -16 -53 -40 -64 -51 -23 l-7
28 -10 -27 c-5 -16 -15 -28 -22 -28 -12 0 -36 61 -36 89 0 21 25 6 28 -17z
m421 14 c16 -19 10 -66 -10 -79 -24 -15 -66 -1 -72 25 -13 49 51 91 82 54z
m51 -50 c0 -50 -4 -65 -16 -70 -22 -9 -28 -2 -17 21 6 10 8 34 6 53 -4 40 2
60 17 60 6 0 10 -27 10 -64z m100 45 c17 -33 12 -41 -26 -41 -22 0 -33 -4 -29
-11 4 -6 20 -7 38 -3 28 6 30 5 18 -10 -19 -23 -68 -21 -81 4 -12 22 -4 60 14
72 21 14 55 8 66 -11z m100 4 c18 -21 6 -29 -19 -13 -18 11 -23 11 -30 -1 -5
-7 -6 -22 -3 -33 4 -15 10 -18 34 -12 23 5 29 3 26 -7 -6 -18 -55 -24 -74 -8
-17 14 -19 60 -2 77 17 17 53 15 68 -3z m158 -3 c3 -9 -3 -11 -22 -6 -16 4
-26 2 -26 -5 0 -6 6 -11 13 -11 7 0 22 -6 32 -14 17 -12 17 -16 5 -30 -16 -20
-71 -18 -78 3 -3 10 3 11 28 6 23 -5 30 -4 26 4 -4 6 -13 11 -20 11 -8 0 -19
7 -26 15 -10 12 -10 18 0 31 15 17 61 15 68 -4z m-2026 -2924 l48 -138 -36 0
c-30 0 -37 4 -45 30 -10 28 -15 30 -59 30 -46 0 -49 -2 -55 -30 -6 -26 -11
-30 -41 -30 -19 0 -34 4 -34 9 0 5 21 68 46 141 l47 131 40 -3 41 -3 48 -137z
m136 101 l3 -36 42 4 c35 4 46 1 65 -20 51 -55 37 -158 -25 -184 -30 -12 -38
-12 -64 1 -16 8 -29 10 -29 5 0 -5 -13 -9 -30 -9 l-30 0 0 141 0 140 33 -3
c29 -3 32 -6 35 -39z m983 -54 c35 -83 38 -88 47 -65 63 163 61 160 103 160
l39 0 0 -140 0 -140 -30 0 -29 0 -3 83 -3 82 -31 -80 c-26 -67 -35 -80 -56
-83 -22 -3 -28 5 -56 75 l-31 78 0 -77 -1 -78 -35 0 -35 0 0 141 0 140 42 -3
42 -3 37 -90z m-271 50 c0 -18 5 -25 20 -25 15 0 20 -7 20 -25 0 -18 -5 -25
-20 -25 -18 0 -20 -7 -20 -55 0 -40 4 -55 14 -55 13 0 26 -20 26 -41 0 -5 -18
-9 -39 -9 -53 0 -71 26 -71 101 0 41 -4 58 -15 63 -8 3 -15 15 -15 26 0 11 7
20 15 20 9 0 15 9 15 25 0 22 4 25 35 25 31 0 35 -3 35 -25z m-374 -48 c20
-18 28 -35 31 -74 5 -45 2 -54 -24 -83 -26 -29 -36 -33 -78 -33 -42 0 -52 4
-78 33 -26 29 -29 38 -24 83 6 66 38 97 102 97 31 0 52 -7 71 -23z m124 -41
c0 -80 6 -96 35 -96 29 0 35 16 35 96 l0 64 35 0 35 0 0 -105 0 -105 -35 0
c-21 0 -35 5 -35 12 0 9 -3 9 -12 0 -7 -7 -29 -12 -49 -12 -55 0 -69 25 -69
127 l0 83 30 0 30 0 0 -64z m893 53 c27 -12 43 -39 50 -81 l4 -28 -68 0 c-62
0 -69 -2 -69 -20 0 -23 45 -39 63 -21 11 11 67 16 67 5 0 -19 -24 -43 -52 -53
-46 -16 -94 -4 -124 32 -23 27 -25 38 -21 81 3 38 11 55 31 73 30 25 79 30
119 12z m-4993 -764 c0 -50 -4 -85 -10 -85 -6 0 -10 35 -10 85 0 50 4 85 10
85 6 0 10 -35 10 -85z m47 38 c-3 -10 -5 -2 -5 17 0 19 2 27 5 18 2 -10 2 -26
0 -35z m823 17 c0 -26 3 -29 18 -22 46 25 89 -37 61 -87 -12 -21 -23 -26 -57
-27 l-42 -2 0 84 c0 49 4 84 10 84 6 0 10 -14 10 -30z m280 -53 l0 -84 -40 -1
c-32 -2 -43 3 -56 23 -21 32 -12 69 21 91 19 13 28 14 39 5 12 -10 15 -6 21
19 4 16 8 30 11 30 2 0 4 -38 4 -83z m439 -8 c0 -43 -5 -79 -10 -79 -5 0 -9
39 -9 86 0 54 4 83 10 79 5 -3 9 -42 9 -86z m781 81 c0 -5 -4 -10 -10 -10 -5
0 -10 5 -10 10 0 6 5 10 10 10 6 0 10 -4 10 -10z m140 -20 c0 -28 2 -30 20
-20 14 8 26 8 40 0 16 -9 20 -21 20 -65 0 -70 -18 -72 -22 -2 -3 48 -5 52 -28
52 -23 0 -25 -4 -28 -52 -5 -86 -22 -60 -22 32 0 50 4 85 10 85 6 0 10 -14 10
-30z m800 20 c0 -5 -16 -10 -35 -10 -30 0 -35 -3 -35 -24 0 -19 4 -22 23 -19
47 9 76 -56 41 -91 -8 -9 -26 -16 -38 -16 -26 0 -54 26 -41 38 4 4 10 1 12 -5
7 -20 51 -15 62 6 15 28 -9 55 -43 49 -33 -7 -39 2 -30 47 6 33 9 35 45 35 22
0 39 -4 39 -10z m924 -4 c-19 -15 -19 -15 1 -30 18 -14 18 -15 3 -16 -15 0
-18 -9 -18 -55 0 -30 -4 -55 -10 -55 -5 0 -10 25 -10 55 0 30 -4 55 -9 55 -5
0 -3 14 5 30 10 19 23 30 37 30 20 0 20 0 1 -14z m726 4 c0 -5 -4 -10 -10 -10
-5 0 -10 5 -10 10 0 6 5 10 10 10 6 0 10 -4 10 -10z m640 0 c0 -5 -7 -10 -16
-10 -8 0 -12 5 -9 10 3 6 10 10 16 10 5 0 9 -4 9 -10z m261 -39 c25 13 68 -11
70 -39 2 -31 -3 -57 -13 -69 -13 -16 -54 -17 -64 -2 -4 7 0 9 14 5 22 -7 52
16 52 40 0 27 -20 54 -40 54 -24 0 -43 -34 -35 -60 3 -11 2 -28 -4 -37 -8 -13
-10 6 -9 72 1 50 3 75 5 57 4 -29 6 -31 24 -21z m249 39 c0 -5 -4 -10 -10 -10
-5 0 -10 5 -10 10 0 6 5 10 10 10 6 0 10 -4 10 -10z m60 -81 c0 -46 -4 -79
-10 -79 -6 0 -10 35 -10 86 0 54 4 83 10 79 6 -3 10 -42 10 -86z m136 0 c0
-43 -3 -79 -7 -79 -12 0 -17 25 -12 53 6 31 -11 57 -38 57 -19 0 -39 -28 -39
-54 0 -24 30 -47 52 -40 14 4 18 2 14 -5 -12 -19 -54 -13 -66 9 -6 12 -10 35
-8 53 4 37 40 62 70 46 16 -8 18 -6 18 22 0 18 3 29 8 25 4 -4 7 -43 8 -87z
m54 81 c0 -5 -4 -10 -10 -10 -5 0 -10 5 -10 10 0 6 5 10 10 10 6 0 10 -4 10
-10z m800 -74 l0 -84 -42 2 c-34 1 -45 6 -57 27 -28 50 15 112 62 87 14 -7 17
-4 17 22 0 16 5 30 10 30 6 0 10 -35 10 -84z m-4717 26 c-20 -5 -17 -92 2 -92
8 0 15 -5 15 -11 0 -6 -8 -9 -17 -7 -14 2 -19 15 -21 56 -2 28 -7 52 -13 52
-5 0 -4 8 2 19 11 17 13 17 28 2 12 -12 13 -17 4 -19z m-2248 8 c38 14 55 -6
55 -65 0 -30 -4 -55 -10 -55 -5 0 -10 25 -10 56 0 52 -1 55 -22 52 -20 -3 -23
-10 -26 -55 -2 -29 -7 -53 -12 -53 -5 0 -10 24 -12 53 -3 44 -6 52 -23 52 -17
0 -20 -8 -23 -52 -4 -73 -22 -67 -22 8 0 47 3 60 13 56 8 -3 20 -1 27 3 8 5
21 5 29 1 9 -5 25 -5 36 -1z m237 -14 c4 -6 8 -32 8 -57 l0 -46 -39 -1 c-69
-3 -83 56 -16 68 16 3 30 11 33 17 6 19 -27 28 -49 14 -12 -7 -19 -8 -19 -1 0
26 65 31 82 6z m243 -50 c-9 -31 -21 -56 -26 -56 -5 0 -14 21 -20 46 -13 49
-23 48 -36 -5 -13 -49 -27 -48 -40 1 -7 24 -15 51 -18 61 -4 9 -3 17 3 17 5 0
15 -21 22 -47 l13 -48 15 48 c18 55 33 56 45 4 5 -20 12 -37 16 -37 4 0 13 21
20 48 7 26 15 42 18 35 2 -6 -3 -36 -12 -67z m133 46 c24 -30 14 -42 -33 -42
-33 0 -45 -4 -45 -15 0 -22 36 -38 59 -25 28 14 35 12 21 -6 -20 -23 -72 -14
-89 17 -36 65 40 128 87 71z m460 12 c12 -8 22 -24 22 -35 0 -16 -7 -19 -45
-19 -25 0 -45 -4 -45 -9 0 -17 32 -42 46 -37 50 21 50 21 35 3 -16 -20 -64
-23 -79 -4 -6 6 -13 24 -17 39 -5 21 -1 33 19 52 29 30 34 31 64 10z m123 -59
c-10 -27 -23 -51 -28 -52 -5 -2 -19 24 -31 57 -11 33 -17 60 -12 60 4 0 14
-17 21 -37 18 -59 21 -59 43 -2 11 30 21 47 23 39 2 -8 -5 -37 -16 -65z m137
47 c24 -30 14 -42 -33 -42 -33 0 -45 -4 -45 -15 0 -22 36 -38 59 -25 28 14 35
12 21 -6 -20 -23 -72 -14 -89 17 -36 65 40 128 87 71z m185 4 c42 -63 -25
-142 -77 -90 -24 24 -20 80 6 98 23 16 57 12 71 -8z m87 14 c19 10 26 9 43 -8
23 -23 26 -74 6 -99 -9 -10 -23 -13 -45 -10 -31 5 -33 3 -37 -26 -2 -18 -4 11
-5 63 -1 56 2 89 7 81 7 -10 13 -11 31 -1z m169 0 c11 0 31 -47 24 -54 -4 -3
-24 -6 -45 -6 -41 0 -51 -17 -22 -41 13 -10 19 -10 36 0 11 7 23 10 26 6 9 -9
-19 -25 -45 -25 -30 0 -53 26 -53 61 0 34 34 73 57 65 8 -3 18 -6 22 -6z m111
2 c0 -4 -9 -13 -20 -20 -15 -9 -20 -23 -20 -58 0 -65 -16 -46 -19 22 -2 47 0
56 13 51 8 -3 18 -2 21 3 7 12 25 13 25 2z m233 -57 c-10 -31 -22 -57 -28 -57
-5 0 -14 16 -20 35 -15 53 -23 54 -36 3 -6 -25 -15 -46 -19 -46 -9 0 -40 85
-40 107 0 27 18 3 24 -32 9 -45 22 -45 33 2 12 53 29 51 43 -4 l12 -48 10 30
c15 50 28 78 33 73 3 -3 -3 -31 -12 -63z m455 49 c26 -18 30 -74 6 -98 -22
-23 -60 -20 -78 6 -22 32 -20 55 9 83 28 29 33 30 63 9z m250 0 c12 -8 22 -24
22 -35 0 -16 -7 -19 -45 -19 -33 0 -45 -4 -45 -15 0 -22 36 -38 59 -25 28 14
36 12 21 -5 -15 -18 -64 -20 -78 -2 -6 6 -13 24 -17 39 -5 21 -1 33 19 52 29
30 34 31 64 10z m112 7 c0 -5 -9 -11 -20 -14 -16 -4 -20 -14 -20 -50 0 -25 -4
-49 -10 -52 -6 -4 -10 17 -10 55 0 51 3 61 15 57 8 -4 17 -2 20 3 8 12 25 13
25 1z m488 -7 c12 -8 22 -24 22 -35 0 -16 -7 -19 -45 -19 -25 0 -45 -4 -45 -9
0 -17 32 -42 46 -37 50 21 50 21 35 3 -20 -25 -67 -22 -85 5 -22 32 -20 55 9
83 28 29 33 30 63 9z m140 -57 l3 -55 -42 2 c-27 0 -46 7 -52 18 -15 23 8 48
44 48 23 0 29 5 29 21 0 19 -4 21 -35 16 -40 -7 -46 0 -12 12 43 16 62 -1 65
-62z m102 65 c0 -4 -10 -12 -22 -17 -18 -8 -24 -21 -29 -60 l-6 -50 -1 63 c-1
35 2 61 6 58 4 -2 14 -1 22 5 18 11 30 12 30 1z m100 -16 c0 -2 -12 -3 -27 -2
-41 2 -41 -17 1 -37 40 -19 42 -25 23 -51 -15 -21 -68 -19 -75 2 -3 11 0 12
16 3 23 -12 52 -5 52 14 0 6 -15 16 -32 21 -42 12 -51 50 -16 63 20 7 58 -1
58 -13z m193 0 c42 -63 -25 -142 -77 -90 -24 24 -20 80 6 98 23 16 57 12 71
-8z m265 8 c12 -8 22 -24 22 -35 0 -16 -7 -19 -45 -19 -25 0 -45 -4 -45 -9 0
-17 32 -42 46 -37 50 21 50 21 35 3 -20 -25 -67 -22 -85 5 -22 32 -20 55 9 83
28 29 33 30 63 9z m112 -12 c23 28 26 17 4 -17 -15 -23 -14 -26 6 -55 12 -16
17 -30 12 -30 -5 0 -17 10 -26 23 l-16 22 -16 -22 c-9 -13 -21 -23 -26 -23 -5
0 0 14 12 30 l22 30 -22 38 -22 37 26 -28 26 -29 20 24z m144 12 c26 -25 30
-61 11 -90 -13 -20 -23 -25 -48 -22 -28 3 -32 0 -29 -19 2 -12 -2 -24 -8 -28
-7 -4 -10 23 -10 80 0 69 3 86 13 82 8 -3 20 -1 28 4 19 12 25 11 43 -7z m144
-12 c24 -30 14 -42 -33 -42 -33 0 -45 -4 -45 -15 0 -22 36 -38 60 -25 11 6 20
7 20 1 0 -11 -24 -21 -51 -21 -28 0 -52 43 -44 80 10 48 62 60 93 22z m102 20
c0 -4 -10 -12 -22 -17 -18 -8 -24 -21 -29 -60 l-6 -50 -1 63 c-1 35 2 61 6 58
4 -2 14 -1 22 5 18 11 30 12 30 1z m149 -2 c7 0 31 -43 31 -55 0 -3 -20 -5
-45 -5 -48 0 -59 -16 -29 -41 13 -10 19 -10 36 0 11 7 23 10 26 6 9 -9 -19
-25 -45 -25 -30 0 -53 26 -53 61 0 34 34 73 57 65 8 -3 18 -6 22 -6z m135 -6
c18 -17 23 -120 6 -109 -5 3 -10 26 -10 51 0 31 -5 46 -15 50 -26 11 -45 -16
-45 -63 0 -26 -4 -42 -10 -38 -10 6 -12 66 -3 98 2 9 8 15 12 13 4 -3 13 -1
21 5 20 12 26 11 44 -7z m127 6 c10 -6 19 -15 19 -20 0 -6 -9 -5 -20 2 -28 18
-54 -1 -58 -40 -2 -23 2 -34 18 -42 16 -9 25 -9 33 -1 17 17 31 13 17 -4 -30
-36 -90 -1 -90 52 0 24 32 63 51 63 6 0 19 -5 30 -10z m127 -6 c12 -8 22 -24
22 -35 0 -16 -7 -19 -39 -19 -22 0 -42 -4 -46 -9 -8 -14 25 -43 41 -37 50 21
50 21 35 3 -17 -21 -55 -22 -75 -1 -24 24 -20 80 6 98 12 9 25 16 28 16 3 0
16 -7 28 -16z m129 -81 c-2 -21 -4 -6 -4 32 0 39 2 55 4 38 2 -18 2 -50 0 -70z
m133 66 c13 -23 13 -86 1 -94 -6 -3 -11 17 -13 47 -3 49 -5 53 -28 53 -23 0
-25 -4 -28 -52 -4 -73 -22 -67 -22 8 0 47 3 60 13 56 8 -3 20 -1 27 3 17 11
38 2 50 -21z m340 -32 l0 -63 -40 -1 c-29 -1 -42 3 -48 15 -13 26 -15 102 -3
102 5 0 11 -21 13 -47 3 -44 5 -48 28 -48 22 0 25 5 28 40 6 87 22 88 22 2z
m50 -2 c0 -40 -4 -65 -11 -65 -10 0 -12 105 -2 123 10 17 13 3 13 -58z m361
55 c15 -9 19 -22 19 -65 0 -70 -18 -72 -22 -3 -2 42 -7 54 -22 56 -25 5 -36
-14 -36 -65 0 -24 -4 -43 -10 -43 -6 0 -10 27 -10 61 0 47 3 60 13 56 8 -3 20
-1 28 4 18 11 17 11 40 -1z m143 -157 c-23 -17 -59 -16 -73 1 -9 11 -4 13 26
12 33 -1 38 2 41 24 4 21 2 22 -12 11 -40 -34 -91 32 -67 85 9 21 17 25 46 23
18 -2 38 0 42 5 4 4 9 -27 11 -70 2 -65 0 -81 -14 -91z m150 157 c12 4 29 4
36 0 8 -5 22 -4 32 1 12 6 25 6 38 -1 16 -9 20 -21 20 -65 0 -70 -18 -72 -22
-2 -3 44 -6 52 -23 52 -17 0 -20 -8 -23 -52 -4 -68 -22 -69 -22 -3 0 87 -56
79 -63 -8 -2 -34 -4 -28 -4 23 -1 39 1 65 3 58 4 -8 13 -9 28 -3z m229 1 c54
-21 39 -121 -18 -121 -33 0 -55 26 -55 65 0 24 7 39 22 49 27 19 21 18 51 7z
m295 -19 c24 -30 14 -42 -33 -42 -33 0 -45 -4 -45 -15 0 -22 36 -38 59 -25 28
14 35 12 21 -6 -20 -23 -72 -14 -89 17 -36 65 40 128 87 71z m72 18 c18 12 30
13 30 2 0 -4 -10 -12 -22 -17 -18 -8 -24 -21 -29 -60 -6 -48 -6 -47 -7 20 -1
39 2 65 6 58 5 -8 13 -9 22 -3z m134 -6 c10 -10 16 -33 16 -65 0 -66 -18 -63
-22 4 -3 48 -5 52 -28 52 -23 0 -25 -4 -28 -52 -4 -73 -22 -67 -22 8 0 47 3
60 13 56 8 -3 20 -1 28 4 19 12 25 11 43 -7z m-5124 -54 c0 -33 -4 -60 -10
-60 -6 0 -10 27 -10 60 0 33 4 60 10 60 6 0 10 -27 10 -60z m470 23 c18 -56
26 -59 40 -16 16 48 36 71 26 29 -11 -44 -34 -96 -43 -96 -4 0 -18 27 -30 60
-12 33 -18 60 -13 60 5 0 14 -17 20 -37z m600 0 c13 -39 30 -66 30 -46 0 6 7
27 16 48 25 61 29 31 4 -37 -23 -64 -54 -108 -66 -95 -4 4 1 13 12 21 18 14
18 15 -3 80 -12 36 -17 66 -13 66 5 0 14 -17 20 -37z m1519 -18 c-1 -30 -5
-58 -10 -61 -5 -3 -9 22 -9 55 0 34 4 61 10 61 5 0 9 -25 9 -55z m1401 -5 c0
-33 -4 -60 -10 -60 -6 0 -10 27 -10 60 0 33 4 60 10 60 6 0 10 -27 10 -60z
m1205 -62 c-4 -13 -12 -27 -18 -33 -7 -7 -8 -4 -3 8 3 10 6 25 6 33 0 8 5 14
11 14 6 0 8 -9 4 -22z m-6715 -188 c0 -5 -4 -10 -10 -10 -5 0 -10 5 -10 10 0
6 5 10 10 10 6 0 10 -4 10 -10z m770 -74 l0 -84 -42 2 c-34 1 -45 6 -57 27
-12 22 -12 31 -2 57 14 33 47 48 68 30 10 -8 13 -5 13 14 0 22 7 38 17 38 2 0
3 -38 3 -84z m702 73 c-23 -9 -26 -36 -3 -31 6 1 11 -2 11 -8 0 -5 -7 -10 -15
-10 -11 0 -15 -14 -17 -57 l-2 -58 -3 58 c-2 31 -8 57 -13 57 -5 0 -2 14 6 30
10 20 23 30 37 29 22 0 22 0 -1 -10z m138 1 c0 -5 -4 -10 -10 -10 -5 0 -10 5
-10 10 0 6 5 10 10 10 6 0 10 -4 10 -10z m400 -74 l0 -84 -42 2 c-36 1 -45 5
-56 28 -25 53 15 110 61 86 14 -7 17 -4 17 15 0 21 7 37 17 37 2 0 3 -38 3
-84z m60 -7 c0 -46 -4 -79 -10 -79 -6 0 -10 35 -10 86 0 54 4 83 10 79 6 -3
10 -42 10 -86z m571 42 c48 25 89 -46 59 -102 -11 -20 -54 -26 -65 -8 -4 6 -1
10 6 8 43 -5 65 24 49 65 -19 50 -78 22 -67 -32 6 -28 -6 -62 -15 -46 -8 14
-7 148 0 159 4 5 8 -5 10 -23 3 -29 5 -31 23 -21z m579 -36 c0 -50 -4 -85 -10
-85 -11 0 -14 152 -3 163 12 13 13 7 13 -78z m60 75 c0 -5 -4 -10 -10 -10 -5
0 -10 5 -10 10 0 6 5 10 10 10 6 0 10 -4 10 -10z m390 0 c0 -5 -7 -10 -15 -10
-8 0 -15 5 -15 10 0 6 7 10 15 10 8 0 15 -4 15 -10z m560 -75 c0 -50 -4 -85
-10 -85 -6 0 -10 35 -10 85 0 50 4 85 10 85 6 0 10 -35 10 -85z m120 55 c0
-28 2 -30 20 -20 14 8 26 8 40 0 16 -9 20 -21 20 -65 0 -70 -18 -72 -22 -2 -3
48 -5 52 -28 52 -23 0 -25 -4 -28 -52 -5 -86 -22 -60 -22 32 0 50 4 85 10 85
6 0 10 -14 10 -30z m1510 0 c0 -26 3 -29 18 -22 48 26 90 -43 58 -93 -18 -27
-54 -33 -75 -12 -11 10 -13 10 -7 0 4 -7 2 -13 -3 -13 -7 0 -11 32 -11 85 0
50 4 85 10 85 6 0 10 -14 10 -30z m386 -25 c-3 -51 4 -56 32 -20 11 14 26 25
33 25 7 0 3 -10 -10 -24 -24 -26 -23 -35 12 -73 12 -13 15 -23 9 -23 -7 0 -26
15 -42 33 l-29 32 -1 -32 c0 -18 -4 -33 -10 -33 -6 0 -10 35 -10 86 0 49 4 83
9 79 5 -3 8 -25 7 -50z m822 -40 c1 -41 -2 -75 -7 -75 -13 0 -20 25 -14 48 12
48 -44 84 -67 42 -22 -41 8 -88 47 -73 11 4 14 3 9 -5 -9 -16 -49 -15 -64 0
-7 7 -12 29 -12 49 0 47 29 73 66 59 22 -9 24 -7 24 23 0 64 16 6 18 -68z
m112 85 c0 -5 -4 -10 -10 -10 -5 0 -10 5 -10 10 0 6 5 10 10 10 6 0 10 -4 10
-10z m-3578 -30 c19 -17 19 -20 5 -20 -24 0 -24 -78 1 -96 14 -11 15 -13 2
-14 -27 0 -40 22 -40 67 0 24 -5 43 -10 43 -6 0 -5 8 2 20 7 11 14 20 16 20 1
0 12 -9 24 -20z m1644 0 c8 0 14 -4 14 -10 0 -5 -7 -10 -15 -10 -23 0 -20 -76
2 -89 21 -11 11 -26 -12 -18 -11 5 -15 21 -15 57 0 27 -5 50 -10 50 -6 0 -5 8
2 20 7 11 14 16 16 10 2 -5 10 -10 18 -10z m-6056 -10 c0 -4 -9 -10 -20 -13
-20 -5 -25 -27 -20 -84 1 -13 -3 -23 -9 -23 -7 0 -11 25 -11 63 l0 62 30 1
c17 1 30 -2 30 -6z m98 -6 c12 -8 22 -24 22 -35 0 -16 -7 -19 -45 -19 -33 0
-45 -4 -45 -15 0 -22 36 -38 59 -25 28 14 36 12 21 -5 -15 -18 -64 -20 -78 -2
-6 6 -13 24 -17 39 -5 21 -1 33 19 52 29 30 34 31 64 10z m113 6 c10 -6 19
-15 19 -20 0 -6 -8 -5 -19 1 -25 17 -58 4 -41 -16 6 -7 21 -15 32 -17 30 -4
45 -32 29 -52 -17 -20 -65 -21 -81 -1 -14 17 -7 19 20 5 22 -12 50 -3 50 15 0
6 -15 16 -32 21 -38 11 -49 41 -22 61 21 16 20 16 45 3z m160 -37 c19 -51 -37
-106 -76 -73 -11 9 -14 4 -18 -27 -2 -21 -4 2 -5 50 -1 56 2 86 8 82 5 -3 18
-2 27 4 23 12 51 -3 64 -36z m127 19 c43 -55 -33 -135 -82 -86 -38 37 -1 123
47 109 12 -4 28 -14 35 -23z m138 -51 c2 -67 -14 -66 -18 1 -2 42 -7 54 -22
56 -27 6 -36 -9 -39 -61 -3 -69 -17 -57 -17 14 0 47 3 60 13 56 8 -3 20 -1 28
4 29 17 54 -14 55 -70z m114 60 c0 -4 -14 -5 -31 -3 -26 4 -30 2 -27 -14 2
-10 14 -21 27 -24 33 -8 49 -34 32 -54 -15 -18 -66 -22 -76 -5 -11 17 3 23 20
9 8 -7 22 -10 30 -6 25 9 17 35 -12 42 -47 12 -59 49 -21 63 23 8 58 4 58 -8z
m288 3 c12 -8 22 -24 22 -35 0 -16 -7 -19 -39 -19 -22 0 -42 -4 -46 -9 -8 -14
25 -43 41 -37 50 21 50 21 35 3 -17 -21 -55 -22 -75 -1 -24 24 -20 80 6 98 12
9 25 16 28 16 3 0 16 -7 28 -16z m253 6 c15 -9 19 -22 19 -63 l0 -52 -40 -3
c-31 -2 -41 2 -50 18 -14 26 2 50 34 50 31 0 46 13 36 29 -5 9 -18 12 -39 8
-36 -8 -41 0 -8 13 29 11 26 11 48 0z m147 -68 c-1 -36 -3 -44 -5 -22 -6 64
-13 80 -32 80 -27 0 -39 -20 -44 -70 -3 -38 -4 -35 -5 18 -1 35 1 61 6 59 4
-3 16 -1 27 3 39 15 55 -5 53 -68z m436 72 c9 -3 16 -14 16 -23 0 -13 -2 -13
-9 -3 -11 18 -46 11 -46 -8 0 -8 11 -17 24 -20 52 -12 49 -70 -3 -70 -26 0
-53 16 -43 26 3 4 13 1 22 -6 8 -7 22 -10 30 -6 24 9 17 33 -12 41 -47 11 -58
49 -20 65 12 5 23 9 24 9 1 1 8 -2 17 -5z m134 -10 c12 -8 22 -24 22 -35 0
-16 -7 -19 -45 -19 -33 0 -45 -4 -45 -15 0 -22 36 -38 59 -25 28 14 36 12 21
-5 -19 -23 -66 -19 -84 7 -22 32 -20 55 9 83 28 29 33 30 63 9z m112 7 c0 -5
-9 -11 -20 -14 -17 -4 -20 -14 -20 -56 0 -28 -4 -51 -10 -51 -6 0 -10 27 -10
61 0 50 3 60 15 56 8 -4 17 -2 20 3 8 12 25 13 25 1z m260 0 c0 -5 -9 -11 -20
-14 -20 -5 -25 -27 -20 -84 1 -13 -3 -23 -9 -23 -7 0 -11 24 -11 59 0 63 -2
60 53 70 4 0 7 -3 7 -8z m160 -11 c34 -34 26 -50 -25 -50 -33 0 -45 -4 -45
-15 0 -22 36 -38 59 -25 28 14 35 12 21 -6 -20 -23 -72 -14 -89 17 -18 33 -8
77 22 89 32 13 35 12 57 -10z m130 0 c14 -14 19 -32 18 -65 -1 -62 -16 -57
-20 7 -2 42 -7 54 -22 56 -27 5 -35 -7 -37 -60 -4 -70 -19 -59 -19 13 0 50 3
60 15 56 8 -4 17 -2 20 3 9 15 23 12 45 -10z m271 -38 l17 -47 14 35 c8 19 18
44 22 54 3 10 9 16 12 13 10 -10 -49 -158 -67 -168 -23 -12 -25 -1 -3 16 16
11 15 17 -5 75 -11 35 -21 68 -21 74 0 19 15 -6 31 -52z m419 38 c34 -34 26
-50 -25 -50 -33 0 -45 -4 -45 -15 0 -22 36 -38 59 -25 28 14 36 12 21 -5 -19
-23 -66 -19 -84 7 -22 32 -20 55 9 83 29 30 39 31 65 5z m324 7 c13 -9 20 -30
22 -64 l4 -50 -47 1 c-44 1 -48 3 -51 28 -3 23 1 28 25 33 46 11 53 14 53 25
0 17 -31 24 -51 11 -11 -6 -19 -7 -19 -2 0 9 28 30 41 31 3 0 13 -6 23 -13z
m146 -7 c11 -11 20 -32 20 -47 0 -48 -49 -80 -78 -51 -9 9 -12 4 -12 -25 0
-20 -4 -37 -10 -37 -6 0 -10 35 -10 86 0 68 3 85 13 81 8 -3 20 -1 28 4 20 13
27 11 49 -11z m154 -28 c13 -48 -15 -86 -58 -79 -30 5 -32 3 -29 -18 3 -12 0
-26 -6 -29 -8 -5 -11 19 -11 79 0 69 3 86 13 82 8 -3 20 -1 27 3 22 14 54 -6
64 -38z m228 24 c10 -15 0 -22 -14 -8 -32 32 -74 -4 -62 -52 7 -29 29 -40 54
-26 27 14 34 12 20 -5 -16 -20 -54 -19 -74 1 -24 24 -20 80 6 98 23 16 57 12
70 -8z m120 0 c4 -6 8 -32 8 -57 l0 -46 -39 -1 c-69 -3 -83 56 -16 68 16 3 30
11 33 17 6 19 -27 28 -49 14 -11 -6 -19 -7 -19 -2 0 29 65 34 82 7z m256 8
c26 -18 30 -74 6 -98 -22 -23 -60 -20 -78 6 -22 32 -20 55 9 83 28 29 33 30
63 9z m136 0 c18 -17 23 -114 6 -114 -6 0 -9 18 -7 41 4 46 -11 73 -39 67 -15
-2 -20 -13 -22 -56 -4 -72 -18 -66 -18 8 0 42 3 59 11 56 7 -2 18 0 26 5 19
12 25 11 43 -7z m122 2 c18 -13 17 -14 -15 -13 -46 3 -50 -18 -6 -33 31 -10
36 -16 33 -38 -2 -22 -9 -28 -34 -30 -19 -2 -36 3 -44 12 -14 18 -7 20 20 6
20 -11 50 -4 50 12 0 5 -16 16 -35 24 -39 16 -47 46 -17 63 23 14 25 13 48 -3z
m505 -7 c15 -15 19 -30 17 -62 l-3 -41 -45 -1 c-42 0 -45 2 -48 27 -3 23 1 28
25 33 46 11 53 14 53 25 0 17 -31 24 -51 11 -11 -6 -19 -7 -19 -2 0 10 28 30
43 31 4 0 16 -9 28 -21z m249 1 c34 -34 26 -50 -25 -50 -33 0 -45 -4 -45 -15
0 -23 36 -38 61 -24 17 9 20 8 17 -3 -3 -7 -19 -13 -38 -13 -80 0 -77 118 3
124 4 1 16 -8 27 -19z m181 10 c15 -9 19 -22 19 -63 l0 -53 -42 1 c-39 0 -43
2 -46 27 -3 23 1 28 25 33 46 11 53 14 53 25 0 17 -31 24 -51 12 -12 -8 -20
-8 -24 -2 -4 6 4 14 17 19 30 13 26 13 49 1z m183 4 c28 -11 17 -24 -15 -17
-26 5 -31 3 -27 -13 2 -10 14 -21 27 -24 52 -12 49 -70 -3 -70 -26 0 -53 16
-43 26 3 4 13 1 22 -6 8 -7 22 -10 30 -6 24 9 17 33 -12 41 -47 11 -58 49 -20
65 12 5 23 9 24 9 1 1 8 -2 17 -5z m196 -3 c0 -5 -9 -11 -20 -14 -17 -4 -20
-14 -20 -56 0 -28 -4 -51 -10 -51 -6 0 -10 27 -10 61 0 50 3 60 15 56 8 -4 17
-2 20 3 8 12 25 13 25 1z m113 -15 c31 -46 7 -106 -43 -106 -34 0 -50 23 -50
69 0 50 66 77 93 37z m118 14 c16 -9 19 -21 17 -68 -1 -36 -3 -44 -5 -22 -6
65 -13 80 -33 80 -24 0 -33 -15 -41 -70 -6 -43 -6 -43 -8 18 0 35 3 61 7 58 4
-2 14 -1 22 5 19 11 18 11 41 -1z m147 -3 c19 7 16 -131 -4 -151 -19 -20 -58
-21 -73 -2 -9 11 -4 13 26 12 33 -1 38 2 41 24 3 21 2 22 -12 11 -19 -16 -53
-6 -67 20 -24 46 19 110 61 89 8 -4 21 -5 28 -3z m326 -3 c10 -10 16 -33 16
-64 l0 -48 -41 2 c-27 0 -46 7 -52 18 -15 23 8 48 45 48 23 0 29 4 26 18 -3
12 -13 17 -36 16 -38 -2 -41 3 -9 16 31 12 34 12 51 -6z m140 -5 c16 -15 -1
-21 -22 -8 -30 19 -52 5 -52 -34 0 -43 21 -63 49 -48 28 15 36 14 21 -4 -16
-20 -54 -19 -74 1 -24 24 -20 80 6 98 22 16 53 13 72 -5z m242 8 c21 8 20
-130 -2 -151 -19 -20 -58 -21 -73 -2 -9 11 -4 13 26 12 33 -1 38 2 41 24 4 21
2 22 -12 11 -40 -33 -92 32 -68 84 11 23 49 37 66 24 5 -4 15 -5 22 -2z m104
4 c0 -5 -9 -11 -20 -14 -17 -4 -20 -14 -20 -56 0 -73 -17 -63 -19 10 -1 50 2
60 14 56 8 -4 17 -2 20 3 8 12 25 13 25 1z m118 -19 c16 -21 15 -53 -4 -80
-31 -45 -94 -15 -94 44 0 57 63 80 98 36z m265 -9 c9 -35 7 -93 -2 -93 -6 0
-11 24 -13 52 -2 42 -7 54 -22 56 -28 6 -38 -11 -38 -62 0 -25 -4 -46 -9 -46
-5 0 -9 27 -9 61 0 37 4 58 10 54 5 -3 18 -2 27 4 21 11 50 -2 56 -26z m368
27 c16 -9 19 -21 17 -68 -1 -36 -3 -44 -5 -22 -6 64 -13 80 -32 80 -27 0 -39
-20 -44 -70 -3 -38 -4 -35 -5 18 -1 35 2 61 6 58 4 -2 14 -1 22 5 19 11 18 11
41 -1z m-7291 -54 c0 -30 -4 -58 -10 -61 -6 -4 -10 17 -10 54 0 34 4 61 10 61
6 0 10 -24 10 -54z m60 1 c14 -43 22 -40 40 16 6 20 16 37 20 37 5 0 -1 -27
-12 -60 -12 -33 -26 -60 -30 -60 -9 0 -35 59 -45 99 -9 39 12 13 27 -32z m832
6 c3 -44 5 -48 28 -48 23 0 25 4 28 48 4 68 22 58 22 -13 0 -33 -4 -60 -10
-60 -5 0 -10 5 -10 12 0 9 -3 9 -12 0 -34 -34 -68 -1 -68 67 0 57 18 51 22 -6z
m718 -13 c0 -33 -4 -60 -8 -60 -5 0 -9 27 -9 60 0 33 4 60 8 60 5 0 9 -27 9
-60z m704 15 c9 -45 20 -45 32 2 13 52 29 51 45 -4 l13 -48 14 48 c7 26 17 47
22 47 10 0 -17 -100 -31 -114 -8 -9 -29 32 -29 59 0 33 -19 21 -30 -20 -7 -25
-16 -45 -20 -45 -9 0 -40 85 -40 107 0 27 18 3 24 -32z m965 -10 c0 -30 -4
-57 -9 -60 -6 -4 -10 18 -10 54 0 34 4 61 9 61 5 0 9 -25 10 -55z m378 -37
c-2 -18 -4 -4 -4 32 0 36 2 50 4 33 2 -18 2 -48 0 -65z m953 55 c19 -57 26
-59 41 -9 7 25 17 46 21 46 4 0 8 -3 8 -7 0 -17 -38 -107 -47 -110 -5 -2 -18
20 -28 49 -11 29 -21 56 -23 60 -2 4 1 8 6 8 6 0 16 -17 22 -37z m2110 -14 c0
-49 1 -50 28 -47 25 3 27 7 30 51 4 68 19 58 19 -13 0 -33 -4 -60 -9 -60 -4 0
-8 5 -8 10 0 6 -8 5 -20 -2 -34 -21 -55 1 -58 61 -2 31 1 51 7 51 6 0 11 -22
11 -51z m460 -9 c0 -33 -4 -60 -8 -60 -5 0 -10 27 -11 60 -1 37 2 60 8 60 7 0
11 -25 11 -60z m-5780 10 c0 -5 -16 -10 -35 -10 -19 0 -35 5 -35 10 0 6 16 10
35 10 19 0 35 -4 35 -10z m2707 -66 c-9 -9 -28 6 -21 18 4 6 10 6 17 -1 6 -6
8 -13 4 -17z m-3803 -11 c-7 -31 -12 -38 -18 -32 -7 7 6 59 15 59 5 0 6 -12 3
-27z m-1105 -329 c-15 -19 -53 -18 -69 1 -18 22 -5 31 15 11 20 -20 20 -20 39
0 11 10 17 37 18 82 l2 67 3 -73 c3 -47 0 -79 -8 -88z m517 142 c10 -8 16 -18
12 -22 -4 -4 -14 -1 -22 5 -23 19 -61 10 -61 -14 0 -14 10 -23 35 -31 19 -6
40 -20 47 -31 19 -29 -8 -63 -51 -63 -33 0 -66 24 -52 37 4 4 10 3 14 -3 12
-19 47 -25 67 -10 26 19 13 40 -33 54 -51 16 -65 47 -32 74 27 22 50 23 76 4z
m274 4 c0 -5 -4 -10 -10 -10 -5 0 -10 5 -10 10 0 6 5 10 10 10 6 0 10 -4 10
-10z m480 -10 c24 -24 25 -38 4 -68 -14 -21 -14 -25 0 -47 19 -28 20 -35 6
-35 -6 0 -18 16 -27 35 -23 48 -55 45 -64 -5 -4 -23 -7 -5 -8 53 l-1 87 35 0
c22 0 43 -8 55 -20z m1000 -65 c0 -50 -4 -85 -10 -85 -5 0 -10 5 -10 10 0 6
-7 6 -19 -1 -24 -16 -48 -6 -62 25 -24 51 19 108 64 84 14 -7 17 -4 17 22 0
16 5 30 10 30 6 0 10 -35 10 -85z m450 75 c0 -5 -4 -10 -10 -10 -5 0 -10 5
-10 10 0 6 5 10 10 10 6 0 10 -4 10 -10z m810 -20 c0 -28 2 -30 20 -20 42 22
80 -27 66 -85 -7 -29 -49 -44 -71 -25 -10 9 -15 9 -15 1 0 -6 -4 -11 -10 -11
-6 0 -10 35 -10 85 0 50 4 85 10 85 6 0 10 -14 10 -30z m290 -55 c0 -50 -4
-85 -10 -85 -11 0 -12 5 -14 59 -2 63 -66 71 -66 8 0 -40 19 -60 46 -51 15 6
17 4 7 -6 -18 -20 -62 -4 -69 25 -14 57 26 106 69 83 14 -7 17 -4 17 22 0 16
5 30 10 30 6 0 10 -35 10 -85z m430 0 c0 -50 -4 -85 -10 -85 -6 0 -10 35 -10
85 0 50 4 85 10 85 6 0 10 -35 10 -85z m952 74 c-23 -9 -26 -36 -3 -31 6 1 11
-2 11 -8 0 -5 -7 -10 -15 -10 -11 0 -15 -14 -17 -57 l-2 -58 -3 58 c-2 31 -8
57 -13 57 -5 0 -2 14 6 30 10 20 23 30 37 29 22 0 22 0 -1 -10z m1024 -58 c37
35 48 30 13 -7 l-21 -23 27 -35 c15 -20 23 -36 17 -36 -6 0 -20 14 -32 30 -24
34 -40 31 -40 -6 0 -13 -3 -24 -8 -24 -10 0 -13 118 -4 150 5 19 7 12 10 -29
l3 -54 35 34z m614 -16 c0 -50 -4 -85 -10 -85 -5 0 -10 6 -10 13 0 9 -2 9 -9
-1 -13 -21 -54 -10 -70 19 -28 50 15 112 62 87 14 -7 17 -4 17 22 0 16 5 30
10 30 6 0 10 -35 10 -85z m467 -6 c-1 -43 -5 -79 -9 -79 -5 0 -8 39 -8 86 0
54 4 83 10 79 6 -3 9 -41 7 -86z m290 -42 c-2 -23 -3 -1 -3 48 0 50 1 68 3 42
2 -26 2 -67 0 -90z m63 103 c0 -16 -4 -30 -10 -30 -5 0 -10 14 -10 30 0 17 5
30 10 30 6 0 10 -13 10 -30z m-6662 -10 c7 -12 8 -20 2 -20 -18 0 -12 -82 8
-96 14 -11 15 -13 2 -14 -27 0 -40 22 -40 67 0 24 -5 43 -10 43 -6 0 -5 8 2
20 7 11 15 20 18 20 3 0 11 -9 18 -20z m737 -18 c-22 -5 -21 -78 2 -91 21 -11
11 -26 -12 -18 -11 5 -15 21 -15 57 0 27 -5 50 -10 50 -6 0 -6 7 1 19 11 17
13 17 31 2 16 -13 16 -17 3 -19z m3315 18 c16 -16 17 -20 5 -20 -22 0 -20 -79
3 -96 14 -11 15 -13 2 -14 -27 0 -40 22 -40 67 0 24 -5 43 -10 43 -6 0 -5 8 2
20 7 11 14 20 15 20 2 0 12 -9 23 -20z m1923 -18 c-20 -5 -17 -79 4 -91 21
-11 11 -26 -12 -18 -11 5 -15 20 -15 56 0 30 -5 51 -12 53 -9 3 -9 8 2 19 12
14 16 13 30 0 12 -12 12 -17 3 -19z m-6852 8 c15 -9 19 -22 19 -63 l0 -53 -42
1 c-39 0 -43 2 -46 27 -3 23 1 28 25 33 46 11 53 14 53 25 0 17 -31 24 -51 12
-12 -8 -20 -8 -24 -2 -4 6 4 14 17 19 30 13 26 13 49 1z m79 -46 l18 -49 16
37 c9 21 16 42 16 48 0 5 5 10 11 10 7 0 8 -7 4 -17 -4 -10 -14 -37 -22 -60
-8 -24 -18 -43 -23 -43 -9 0 -50 96 -50 118 0 23 9 10 30 -44z m170 36 c16
-16 20 -32 19 -64 l-3 -43 -45 1 c-42 1 -46 3 -49 28 -3 23 1 28 25 33 46 11
53 14 53 25 0 17 -31 24 -51 11 -15 -9 -19 -8 -19 3 0 13 13 20 43 25 4 0 16
-8 27 -19z m271 10 c10 -6 19 -15 19 -20 0 -6 -9 -5 -20 2 -28 18 -54 -1 -58
-40 -4 -41 30 -62 59 -36 10 9 19 12 19 7 0 -18 -28 -35 -52 -31 -51 7 -63 99
-15 118 29 11 26 11 48 0z m109 1 c0 -5 -9 -11 -20 -14 -17 -4 -20 -14 -20
-56 0 -28 -4 -51 -10 -51 -6 0 -10 27 -10 61 0 50 3 60 15 56 8 -4 17 -2 20 3
8 12 25 13 25 1z m173 -15 c17 -26 18 -57 2 -82 -14 -22 -22 -25 -50 -21 -26
4 -33 2 -29 -8 3 -8 1 -22 -5 -32 -8 -14 -10 4 -11 71 0 73 2 87 15 83 8 -4
17 -2 21 4 7 11 45 1 57 -15z m485 -4 c24 -30 14 -42 -33 -42 -33 0 -45 -4
-45 -15 0 -22 36 -38 59 -25 28 14 36 12 21 -5 -20 -24 -67 -19 -86 10 -42 65
35 136 84 77z m124 4 c4 -6 8 -32 8 -57 l0 -46 -39 -1 c-69 -3 -83 56 -16 68
16 3 30 11 33 17 6 19 -27 28 -49 14 -11 -6 -19 -7 -19 -2 0 29 65 34 82 7z
m124 10 c24 -18 13 -31 -14 -15 -11 7 -26 10 -34 6 -23 -8 -28 -55 -9 -79 15
-17 21 -19 39 -9 29 15 37 14 22 -4 -16 -20 -54 -19 -75 1 -25 25 -16 85 15
101 31 16 32 16 56 -1z m342 -58 l3 -55 -39 -1 c-70 -3 -84 56 -17 68 16 3 30
11 33 17 6 19 -27 28 -49 14 -12 -7 -19 -8 -19 -1 0 16 42 28 65 20 16 -6 21
-18 23 -62z m113 62 c15 -9 19 -22 19 -65 0 -67 -15 -74 -17 -9 -2 54 -12 69
-42 59 -18 -5 -21 -14 -21 -58 -1 -34 -4 -47 -9 -37 -5 8 -8 35 -7 59 1 35 5
45 19 47 11 1 21 5 25 8 7 8 10 8 33 -4z m450 0 c15 -9 19 -22 19 -63 l0 -53
-42 1 c-39 0 -43 2 -46 27 -3 23 1 28 25 33 48 11 55 15 50 28 -2 7 -19 11
-41 10 -41 -3 -46 4 -13 17 29 11 26 11 48 0z m89 0 c18 12 30 13 30 2 0 -4
-10 -12 -22 -17 -18 -8 -24 -21 -29 -60 -6 -48 -6 -47 -7 20 -1 39 2 65 6 58
5 -8 13 -9 22 -3z m198 -18 c28 -36 0 -102 -43 -102 -33 0 -55 26 -55 65 0 58
63 82 98 37z m238 14 c18 -14 17 -14 -11 -13 -43 3 -44 -15 -1 -36 37 -18 45
-34 24 -55 -17 -17 -63 -15 -78 3 -14 17 -7 19 20 5 22 -12 50 -3 50 15 0 6
-15 16 -32 21 -38 11 -49 41 -22 61 22 16 26 16 50 -1z m372 -2 c12 -8 22 -24
22 -35 0 -16 -7 -19 -45 -19 -33 0 -45 -4 -45 -15 0 -22 36 -38 59 -25 28 14
35 12 21 -6 -8 -9 -25 -14 -44 -12 -41 4 -63 46 -46 88 10 25 20 32 50 39 3 0
16 -6 28 -15z m470 0 c12 -8 22 -24 22 -35 0 -16 -7 -19 -39 -19 -47 0 -57
-11 -32 -34 15 -14 24 -15 40 -7 28 15 36 14 21 -4 -16 -20 -54 -19 -74 1 -24
24 -20 80 6 98 12 9 25 16 28 16 3 0 16 -7 28 -16z m250 0 c12 -8 22 -24 22
-35 0 -16 -7 -19 -39 -19 -22 0 -42 -4 -46 -9 -8 -14 25 -43 41 -37 50 21 50
21 35 3 -17 -21 -55 -22 -75 -1 -24 24 -20 80 6 98 12 9 25 16 28 16 3 0 16
-7 28 -16z m200 -12 c27 -35 1 -102 -40 -102 -53 0 -77 71 -37 111 22 22 55
19 77 -9z m146 -20 c13 -46 -14 -84 -57 -80 -27 3 -32 0 -32 -19 0 -11 -3 -25
-7 -29 -5 -4 -8 32 -8 80 0 70 3 87 13 83 8 -3 20 -1 27 3 22 14 54 -6 64 -38z
m67 39 c12 6 25 6 36 0 11 -6 24 -6 35 0 12 6 25 6 38 -1 16 -9 20 -21 20 -65
0 -70 -18 -72 -22 -2 -3 44 -6 52 -23 52 -17 0 -20 -8 -23 -52 -4 -68 -22 -69
-22 -3 0 87 -56 79 -63 -8 -2 -34 -4 -28 -4 23 -1 39 1 64 4 58 3 -9 10 -10
24 -2z m237 -7 c12 -8 22 -24 22 -35 0 -16 -7 -19 -39 -19 -22 0 -42 -4 -46
-9 -8 -14 25 -43 41 -37 50 21 50 21 35 3 -17 -21 -55 -22 -75 -1 -24 24 -20
80 6 98 12 9 25 16 28 16 3 0 16 -7 28 -16z m150 -58 c2 -32 -1 -56 -7 -56 -5
0 -11 24 -13 52 -2 42 -7 54 -22 56 -25 5 -36 -14 -36 -66 0 -25 -4 -41 -10
-37 -13 8 -8 116 6 111 6 -2 17 0 24 4 7 4 23 5 34 0 17 -6 22 -17 24 -64z
m322 65 c0 -5 -9 -11 -20 -14 -17 -4 -20 -14 -20 -56 0 -28 -4 -51 -10 -51 -6
0 -10 27 -10 61 0 50 3 60 15 56 8 -4 17 -2 20 3 8 12 25 13 25 1z m111 -19
c1 -4 2 -28 3 -53 l1 -46 -45 1 c-41 1 -45 3 -48 28 -3 23 1 28 25 33 46 11
53 14 53 25 0 17 -31 24 -51 11 -15 -9 -19 -8 -19 3 0 26 77 24 81 -2z m146
16 c9 5 24 7 34 5 16 -5 19 -15 17 -67 l-1 -61 -6 55 c-6 50 -8 55 -31 55 -23
0 -25 -4 -28 -52 -2 -29 -8 -53 -13 -53 -5 0 -9 6 -8 13 1 6 1 31 0 55 -1 39
-3 43 -23 40 -20 -3 -23 -10 -26 -55 -4 -73 -22 -67 -22 8 0 47 3 60 13 56 8
-3 20 -1 27 3 8 5 22 4 32 -1 11 -6 25 -6 35 -1z m181 -16 c24 -30 14 -42 -33
-42 -33 0 -45 -4 -45 -15 0 -23 36 -38 61 -24 17 9 20 8 17 -3 -3 -7 -18 -14
-35 -16 -23 -2 -35 3 -47 20 -46 66 31 142 82 80z m300 12 c15 -10 22 -25 22
-49 0 -41 -24 -67 -58 -63 -54 6 -69 98 -19 118 30 12 30 12 55 -6z m112 7 c0
-5 -9 -11 -20 -14 -17 -4 -20 -14 -20 -56 0 -28 -4 -51 -10 -51 -6 0 -10 27
-10 61 0 50 3 60 15 56 8 -4 17 -2 20 3 8 12 25 13 25 1z m216 -5 c18 -13 17
-14 -15 -13 -46 3 -50 -18 -6 -33 31 -10 36 -16 33 -38 -2 -22 -9 -28 -34 -30
-19 -2 -36 3 -44 12 -14 18 -7 20 20 6 20 -11 50 -4 50 12 0 5 -16 16 -35 24
-39 16 -47 46 -17 63 23 14 25 13 48 -3z m202 -57 l3 -54 -39 -3 c-70 -4 -85
56 -16 68 18 3 30 12 32 24 4 17 -1 18 -32 13 -41 -6 -47 -1 -13 12 43 16 62
-1 65 -60z m113 61 c15 -9 19 -22 19 -65 0 -66 -14 -74 -17 -10 -3 54 -8 65
-33 65 -22 0 -30 -19 -30 -71 0 -21 -4 -39 -9 -39 -5 0 -8 27 -8 60 1 41 5 59
12 56 7 -2 18 0 26 5 18 11 17 11 40 -1z m417 -6 c24 -17 30 -61 12 -95 -15
-27 -64 -25 -84 3 -22 32 -20 55 9 83 28 29 33 30 63 9z m150 -12 c27 -35 1
-102 -40 -102 -53 0 -77 71 -37 111 22 22 55 19 77 -9z m172 9 c0 -4 -14 -5
-31 -3 -26 4 -30 2 -27 -14 2 -10 14 -21 27 -24 52 -12 49 -70 -3 -70 -26 0
-53 16 -43 26 3 4 13 1 22 -6 8 -7 22 -10 30 -6 25 9 17 34 -15 41 -16 4 -32
11 -36 16 -9 15 6 47 24 51 21 5 52 -2 52 -11z m379 9 c42 22 62 -7 59 -82 -3
-56 -16 -46 -20 14 -2 42 -7 54 -22 56 -25 5 -35 -14 -37 -68 l-2 -45 -6 55
c-5 43 -10 56 -25 58 -25 5 -36 -14 -36 -65 0 -67 -16 -50 -19 18 -2 49 1 61
12 56 8 -3 20 -1 27 3 8 5 22 4 32 -1 12 -6 25 -6 37 1z m-7009 -61 c0 -35 -4
-58 -9 -54 -7 4 -9 99 -2 113 7 13 11 -8 11 -59z m1600 24 c18 -57 26 -59 42
-12 8 24 19 44 26 47 6 2 1 -22 -12 -54 -13 -32 -28 -60 -32 -61 -5 -2 -19 24
-31 57 -12 33 -18 60 -13 60 5 0 14 -17 20 -37z m330 -23 c0 -33 -4 -60 -10
-60 -6 0 -10 27 -10 60 0 33 4 60 10 60 6 0 10 -27 10 -60z m188 28 c-2 -66 0
-70 30 -66 25 3 27 7 30 51 4 67 19 58 20 -13 0 -33 -4 -60 -9 -60 -5 0 -9 5
-9 10 0 6 -8 5 -20 -2 -34 -21 -55 1 -58 61 -2 30 1 51 7 51 6 0 10 -15 9 -32z
m315 -15 l14 -48 13 48 c15 55 31 57 44 4 12 -47 23 -47 32 -2 6 35 24 59 24
32 0 -22 -31 -107 -40 -107 -4 0 -13 20 -20 45 -15 52 -26 51 -35 -5 -6 -37
-18 -50 -28 -32 -13 20 -35 112 -27 112 5 0 15 -21 23 -47z m783 0 l20 -48 15
44 c8 25 20 46 27 49 6 2 1 -21 -11 -54 -13 -32 -27 -59 -32 -61 -6 -2 -20 24
-32 57 -26 71 -15 81 13 13z m1795 0 l15 -48 13 48 c17 58 37 61 46 7 8 -49
22 -52 31 -5 6 35 24 59 24 32 0 -22 -31 -107 -40 -107 -4 0 -13 20 -20 45
-15 52 -26 51 -35 -5 -6 -37 -18 -50 -28 -32 -12 19 -35 112 -28 112 4 0 14
-21 22 -47z m1680 -66 c-13 -13 -26 -3 -16 12 3 6 11 8 17 5 6 -4 6 -10 -1
-17z m-6411 -4 c0 -10 -5 -25 -10 -33 -7 -11 -10 -7 -10 18 0 17 5 32 10 32 6
0 10 -8 10 -17z m735 -5 c-4 -13 -12 -27 -18 -33 -7 -7 -8 -4 -3 8 3 10 6 25
6 33 0 8 5 14 11 14 6 0 8 -9 4 -22z m-1355 -188 c0 -5 -4 -10 -10 -10 -5 0
-10 5 -10 10 0 6 5 10 10 10 6 0 10 -4 10 -10z m850 -20 c0 -26 3 -29 18 -22
47 26 90 -43 58 -93 -13 -20 -24 -25 -56 -23 l-40 1 0 84 c0 49 4 83 10 83 6
0 10 -14 10 -30z m1090 20 c0 -5 -4 -10 -10 -10 -5 0 -10 5 -10 10 0 6 5 10
10 10 6 0 10 -4 10 -10z m386 -50 c3 0 13 4 23 10 30 16 51 -9 57 -68 2 -30 0
-52 -5 -52 -6 0 -11 24 -13 52 -2 42 -7 54 -22 56 -27 6 -39 -12 -47 -66 -5
-36 -6 -27 -6 43 0 50 2 75 4 58 2 -18 7 -33 9 -33z m134 50 c0 -5 -4 -10 -10
-10 -5 0 -10 5 -10 10 0 6 5 10 10 10 6 0 10 -4 10 -10z m186 -21 c2 -31 3
-32 19 -19 12 10 20 9 40 -4 21 -14 25 -24 25 -66 0 -66 -18 -64 -22 2 -2 42
-7 54 -22 56 -28 6 -40 -14 -37 -63 1 -26 -2 -45 -9 -45 -6 0 -10 33 -10 87 0
47 3 83 8 79 4 -4 8 -16 8 -27z m634 -54 c0 -50 -4 -85 -10 -85 -6 0 -10 35
-10 85 0 50 4 85 10 85 6 0 10 -35 10 -85z m50 75 c0 -5 -4 -10 -10 -10 -5 0
-10 5 -10 10 0 6 5 10 10 10 6 0 10 -4 10 -10z m750 -76 c0 -57 -3 -83 -10
-79 -10 6 -12 139 -3 158 10 19 13 1 13 -79z m186 26 c3 0 13 4 23 10 30 15
61 -14 61 -59 0 -20 -5 -42 -12 -49 -15 -15 -55 -16 -64 -1 -4 8 -9 7 -15 -2
-5 -8 -8 23 -7 76 1 50 3 75 5 58 2 -18 7 -33 9 -33z m134 -26 c0 -57 -3 -83
-10 -79 -10 6 -12 139 -3 158 10 19 13 1 13 -79z m660 1 c0 -50 -4 -85 -10
-85 -11 0 -12 5 -14 59 -2 63 -66 71 -66 8 0 -39 19 -61 45 -50 13 4 16 3 11
-5 -10 -17 -42 -15 -60 4 -42 42 -2 124 50 104 22 -9 24 -7 24 20 0 17 5 30
10 30 6 0 10 -35 10 -85z m440 75 c0 -5 -4 -10 -10 -10 -5 0 -10 5 -10 10 0 6
5 10 10 10 6 0 10 -4 10 -10z m390 0 c0 -5 -4 -10 -10 -10 -5 0 -10 5 -10 10
0 6 5 10 10 10 6 0 10 -4 10 -10z m319 -50 c4 0 12 5 18 11 9 9 18 8 37 -5 20
-13 26 -25 26 -54 0 -21 -5 -43 -12 -50 -15 -15 -55 -16 -64 -1 -4 7 0 9 14 5
39 -13 70 52 40 82 -31 31 -76 -6 -64 -52 3 -11 1 -28 -4 -36 -7 -10 -9 15 -8
75 1 50 3 75 5 58 2 -18 8 -33 12 -33z m131 -25 c0 -47 -4 -85 -8 -85 -9 0
-14 149 -6 162 11 18 14 4 14 -77z m597 3 c1 -40 -2 -77 -4 -82 -10 -16 -22
18 -16 46 6 32 -11 58 -38 58 -24 0 -41 -33 -33 -64 7 -28 26 -38 52 -29 14 5
15 3 5 -7 -10 -10 -20 -11 -40 -4 -24 8 -28 16 -31 51 -4 50 24 78 64 63 22
-9 24 -7 24 21 0 17 4 28 8 25 5 -3 9 -38 9 -78z m332 54 c-3 -29 1 -33 19
-23 14 7 25 6 40 -5 18 -12 22 -25 22 -65 0 -66 -18 -63 -22 3 -2 43 -7 54
-22 56 -28 6 -44 -22 -39 -68 2 -24 0 -40 -6 -40 -7 0 -11 32 -11 86 0 57 3
83 10 79 6 -4 10 -14 9 -23z m-6811 -12 c7 -12 8 -20 2 -20 -18 0 -12 -82 8
-96 14 -11 15 -13 2 -14 -27 0 -40 22 -40 67 0 27 -5 43 -12 44 -10 0 -10 2 0
6 6 2 12 11 12 19 0 20 13 17 28 -6z m810 3 c12 -12 13 -18 4 -21 -19 -6 -15
-82 6 -98 16 -12 16 -13 -4 -14 -26 0 -34 17 -34 71 0 21 -5 39 -10 39 -6 0
-5 8 2 20 15 24 15 24 36 3z m607 -21 c-22 -5 -21 -78 2 -91 21 -11 11 -26
-12 -18 -11 5 -15 21 -15 57 0 27 -5 50 -10 50 -6 0 -6 7 1 19 11 17 13 17 31
2 16 -13 16 -17 3 -19z m1528 0 c-20 -5 -17 -79 4 -91 21 -11 11 -26 -12 -18
-11 5 -15 20 -15 56 0 30 -5 51 -12 53 -9 3 -9 8 2 19 12 14 16 13 30 0 12
-12 12 -17 3 -19z m2299 18 c19 -17 19 -20 5 -20 -24 0 -24 -78 1 -96 14 -11
15 -13 2 -14 -27 0 -40 22 -40 67 0 24 -5 43 -10 43 -6 0 -5 8 2 20 7 11 14
20 16 20 1 0 12 -9 24 -20z m1496 3 c12 -12 13 -18 4 -21 -19 -6 -15 -82 6
-98 14 -11 15 -13 2 -14 -27 0 -40 22 -40 67 0 24 -5 43 -10 43 -6 0 -5 8 2
20 15 24 15 24 36 3z m345 -21 c-20 -5 -17 -79 4 -91 21 -11 11 -26 -12 -18
-11 5 -15 21 -15 57 0 27 -5 50 -10 50 -6 0 -6 7 1 19 11 17 13 17 28 2 12
-12 13 -17 4 -19z m-7835 -54 l3 -55 -39 -1 c-70 -3 -84 56 -17 68 16 3 30 11
33 17 6 19 -27 28 -49 14 -12 -7 -19 -8 -19 -1 0 16 42 28 65 20 16 -6 21 -18
23 -62z m117 52 c3 -4 -10 -7 -28 -6 -43 2 -43 -25 1 -36 34 -9 43 -33 20 -56
-17 -17 -53 -15 -68 3 -14 17 0 21 17 4 14 -14 43 -5 43 13 0 7 -15 20 -33 28
-40 18 -47 47 -16 59 24 8 56 4 64 -9z m106 10 c5 0 9 -4 9 -8 0 -5 -14 -6
-31 -4 -26 4 -30 2 -27 -14 2 -10 14 -21 27 -24 52 -12 49 -70 -3 -70 -26 0
-53 16 -43 26 3 4 13 1 22 -6 8 -7 22 -10 30 -6 25 9 17 33 -15 45 -39 13 -50
39 -24 58 10 7 25 11 32 8 8 -3 18 -5 23 -5z m188 -16 c25 -32 26 -52 5 -82
-18 -26 -56 -29 -78 -6 -24 24 -20 80 6 98 31 22 43 20 67 -10z m139 -52 c-1
-36 -3 -44 -5 -22 -6 64 -13 80 -32 80 -27 0 -39 -20 -44 -70 -3 -38 -4 -35
-5 18 -1 35 1 61 6 59 4 -3 16 -1 27 3 39 15 55 -5 53 -68z m124 54 c4 -6 8
-32 8 -57 l0 -46 -39 -1 c-69 -3 -83 56 -16 68 16 3 30 11 33 17 6 19 -27 28
-49 14 -11 -6 -19 -7 -19 -2 0 29 65 34 82 7z m217 -17 l10 -29 -45 0 c-47 0
-58 -16 -28 -41 13 -10 19 -10 36 0 11 7 23 10 26 6 9 -8 -19 -25 -42 -25 -28
0 -56 29 -56 60 0 68 77 91 99 29z m165 31 c23 -9 26 -15 26 -63 l0 -54 -39
-1 c-70 -3 -83 56 -15 68 18 3 30 12 32 24 4 17 0 18 -34 13 -36 -6 -37 -5
-20 8 23 18 19 17 50 5z m284 -6 c15 -10 22 -25 22 -49 0 -41 -24 -67 -58 -63
-54 6 -69 98 -19 118 30 12 30 12 55 -6z m403 6 c10 -6 19 -15 19 -20 0 -6 -9
-5 -20 2 -28 18 -54 -1 -58 -40 -2 -23 2 -34 18 -42 16 -9 25 -9 33 -1 17 17
31 13 17 -4 -35 -42 -98 6 -85 65 9 43 39 59 76 40z m109 1 c0 -5 -9 -11 -20
-14 -17 -4 -20 -14 -20 -56 0 -28 -4 -51 -10 -51 -6 0 -10 27 -10 61 0 50 3
60 15 56 8 -4 17 -2 20 3 8 12 25 13 25 1z m98 -7 c12 -8 22 -24 22 -35 0 -16
-7 -19 -39 -19 -47 0 -57 -11 -32 -34 15 -14 24 -15 40 -7 28 15 36 14 21 -4
-16 -20 -54 -19 -74 1 -24 24 -20 80 6 98 12 9 25 16 28 16 3 0 16 -7 28 -16z
m123 6 c15 -9 19 -22 19 -63 l0 -53 -42 1 c-39 0 -43 2 -46 27 -3 23 1 28 25
33 46 11 53 14 53 25 0 17 -31 24 -51 12 -12 -8 -20 -8 -24 -2 -4 6 4 14 17
19 30 13 26 13 49 1z m270 0 c15 -9 19 -22 19 -65 0 -70 -18 -72 -22 -2 -3 48
-5 52 -28 52 -23 0 -25 -4 -30 -55 -6 -64 -20 -45 -20 27 0 34 3 44 13 40 8
-3 20 -1 28 4 18 11 17 11 40 -1z m1157 -6 c19 -13 23 -23 20 -62 l-3 -46 -45
-1 c-42 0 -45 2 -48 27 -3 23 1 28 25 33 46 11 53 14 53 25 0 17 -31 24 -51
11 -15 -9 -19 -8 -19 3 0 12 9 18 40 25 3 0 16 -6 28 -15z m567 -4 c3 -4 -10
-7 -28 -6 -39 1 -45 -25 -8 -34 13 -3 29 -13 34 -22 23 -36 -45 -67 -73 -33
-14 17 0 21 17 4 7 -7 19 -9 27 -6 20 8 21 37 2 37 -25 0 -58 34 -51 52 10 25
66 31 80 8z m127 -4 c10 -15 0 -22 -14 -8 -32 32 -74 -4 -62 -52 7 -29 29 -40
54 -26 27 14 34 12 20 -5 -16 -20 -54 -19 -74 1 -24 24 -20 80 6 98 23 16 57
12 70 -8z m120 0 c4 -6 8 -32 8 -57 l0 -46 -39 -1 c-69 -3 -83 56 -16 68 16 3
30 11 33 17 6 19 -27 28 -49 14 -12 -7 -19 -8 -19 -1 0 26 65 31 82 6z m172 8
c10 -10 16 -33 16 -63 l0 -48 -39 -1 c-69 -3 -83 56 -16 68 16 3 30 11 33 17
6 19 -27 28 -49 14 -12 -7 -19 -8 -19 -1 0 9 32 28 52 29 4 1 14 -6 22 -15z
m334 -12 c24 -30 14 -42 -33 -42 -33 0 -45 -4 -45 -15 0 -22 36 -38 59 -25 29
15 39 12 17 -5 -49 -37 -104 4 -91 65 10 48 62 60 93 22z m236 15 c11 -8 19
-30 22 -63 l4 -51 -48 1 c-43 1 -47 3 -50 28 -3 23 1 28 25 33 46 11 53 14 53
25 0 17 -31 24 -51 11 -15 -9 -19 -8 -19 3 0 12 10 19 41 25 3 0 13 -5 23 -12z
m140 -3 c10 -10 16 -33 16 -65 0 -66 -18 -63 -22 4 -3 48 -5 52 -28 52 -23 0
-25 -4 -28 -52 -4 -73 -22 -67 -22 8 0 47 3 60 13 56 8 -3 20 -1 28 4 19 12
25 11 43 -7z m287 7 c12 6 25 6 36 0 10 -5 24 -6 33 -1 8 4 25 4 38 -1 19 -7
22 -15 22 -64 0 -70 -18 -72 -22 -2 -3 44 -6 52 -23 52 -17 0 -20 -8 -23 -52
-4 -68 -22 -69 -22 -3 0 87 -56 79 -63 -8 -2 -34 -4 -28 -4 23 -1 39 1 64 4
58 3 -9 10 -10 24 -2z m230 -1 c15 -9 19 -22 19 -63 l0 -53 -42 1 c-39 0 -43
2 -46 27 -3 23 1 28 25 33 46 11 53 14 53 25 0 17 -31 24 -51 12 -12 -8 -20
-8 -24 -2 -4 6 4 14 17 19 30 13 26 13 49 1z m193 -6 c10 -10 16 -33 16 -65 0
-66 -18 -63 -22 4 -3 48 -5 52 -28 52 -23 0 -25 -4 -28 -52 -4 -73 -22 -67
-22 8 0 47 3 60 13 56 8 -3 20 -1 28 4 19 12 25 11 43 -7z m206 -4 c14 -14 20
-33 20 -63 l0 -44 -47 1 c-44 1 -48 3 -51 28 -3 23 1 28 25 33 46 11 53 14 53
25 0 17 -31 24 -51 11 -15 -9 -19 -8 -19 3 0 13 13 20 43 25 4 0 16 -8 27 -19z
m198 -58 c-1 -36 -3 -44 -5 -22 -6 64 -13 80 -32 80 -27 0 -39 -20 -44 -70 -3
-38 -4 -35 -5 18 -1 35 1 61 6 59 4 -3 16 -1 27 3 39 15 55 -5 53 -68z m124
54 c4 -6 8 -32 8 -57 l0 -46 -39 -1 c-69 -3 -83 56 -16 68 16 3 30 11 33 17 6
19 -27 28 -49 14 -11 -6 -19 -7 -19 -2 0 29 65 34 82 7z m326 -4 c24 -30 14
-42 -33 -42 -33 0 -45 -4 -45 -15 0 -22 36 -38 59 -25 28 14 36 12 21 -5 -30
-36 -100 -5 -100 45 0 60 61 87 98 42z m183 8 c13 -10 19 -19 12 -20 -6 0 -15
5 -18 10 -12 19 -45 10 -57 -15 -9 -19 -7 -29 6 -50 11 -16 23 -24 32 -21 50
21 50 21 35 3 -17 -21 -55 -22 -75 -1 -24 24 -20 80 6 98 28 20 31 20 59 -4z
m137 -8 c17 -22 15 -68 -4 -87 -23 -23 -66 -15 -83 16 -36 65 40 128 87 71z
m260 12 c12 -8 22 -24 22 -35 0 -16 -7 -19 -39 -19 -22 0 -42 -4 -46 -9 -8
-14 25 -43 41 -37 50 21 50 21 35 3 -17 -21 -55 -22 -75 -1 -24 24 -20 80 6
98 12 9 25 16 28 16 3 0 16 -7 28 -16z m403 6 c15 -9 19 -22 19 -63 l0 -53
-42 1 c-39 0 -43 2 -46 27 -3 23 1 28 25 33 46 11 53 14 53 25 0 17 -31 24
-51 12 -12 -8 -20 -8 -24 -2 -4 6 4 14 17 19 30 13 26 13 49 1z m-7454 -60 c0
-33 -4 -60 -8 -60 -5 0 -9 27 -9 60 0 33 4 60 8 60 5 0 9 -27 9 -60z m1122 27
c-4 -59 0 -68 29 -65 24 3 28 8 33 53 7 61 10 57 15 -17 2 -33 -1 -58 -6 -58
-6 0 -10 5 -10 10 0 6 -8 5 -20 -2 -34 -21 -55 1 -58 61 -2 37 0 51 8 46 6 -4
10 -17 9 -28z m821 -27 c0 -33 -4 -60 -10 -60 -6 0 -10 27 -10 60 0 33 4 60
10 60 6 0 10 -27 10 -60z m520 0 c0 -33 -4 -60 -10 -60 -6 0 -10 27 -10 60 0
33 4 60 10 60 6 0 10 -27 10 -60z m562 13 c3 -44 5 -48 28 -48 23 0 25 4 28
48 4 67 22 59 22 -11 l0 -58 -40 -1 c-35 -2 -42 2 -50 23 -13 33 -13 94 -1 94
6 0 11 -21 13 -47z m308 -13 c0 -33 -4 -60 -10 -60 -6 0 -10 27 -10 60 0 33 4
60 10 60 6 0 10 -27 10 -60z m2170 6 c0 -30 -4 -58 -10 -61 -6 -4 -10 17 -10
54 0 34 4 61 10 61 6 0 10 -24 10 -54z m390 -6 c0 -33 -4 -60 -10 -60 -6 0
-10 27 -10 60 0 33 4 60 10 60 6 0 10 -27 10 -60z m-3060 10 c0 -5 -16 -10
-35 -10 -19 0 -35 5 -35 10 0 6 16 10 35 10 19 0 35 -4 35 -10z"/>
<path d="M1310 8454 c0 -33 2 -35 28 -32 49 6 40 67 -10 68 -14 0 -18 -8 -18
-36z"/>
<path d="M14126 8446 c-9 -38 -8 -41 15 -42 17 -1 20 3 14 25 -10 39 -22 46
-29 17z"/>
<path d="M15550 8450 c0 -29 2 -31 33 -28 27 2 32 7 32 28 0 21 -5 26 -32 28
-31 3 -33 1 -33 -28z"/>
<path d="M14252 8438 c-28 -28 -3 -85 32 -72 27 10 15 84 -14 84 -3 0 -11 -5
-18 -12z"/>
<path d="M1503 8373 c-17 -6 -17 -33 0 -33 14 0 37 20 37 32 0 9 -18 9 -37 1z"/>
<path d="M1790 8370 c-11 -7 -12 -12 -3 -21 15 -15 43 -5 43 16 0 17 -18 19
-40 5z"/>
<path d="M2252 8431 c-8 -5 -12 -22 -10 -42 2 -26 8 -35 25 -37 27 -4 41 35
23 67 -12 23 -18 25 -38 12z"/>
<path d="M2547 8433 c-15 -14 -6 -23 24 -23 27 0 30 2 19 15 -13 16 -32 19
-43 8z"/>
<path d="M2720 8425 c-11 -13 -8 -15 20 -15 21 0 30 4 28 13 -7 18 -33 20 -48
2z"/>
<path d="M3554 8426 c-10 -27 1 -71 18 -74 25 -5 43 35 29 64 -12 26 -39 32
-47 10z"/>
<path d="M14374 8442 c-37 -24 -16 -90 24 -78 25 8 31 53 10 74 -14 14 -19 14
-34 4z"/>
<path d="M15764 8442 c-20 -13 -25 -47 -10 -68 12 -15 18 -17 33 -8 22 14 29
50 13 70 -14 16 -20 17 -36 6z"/>
<path d="M15922 8438 c-19 -19 -14 -28 18 -28 32 0 42 23 14 34 -20 8 -18 8
-32 -6z"/>
<path d="M16670 8436 c-16 -20 -9 -56 13 -70 15 -9 21 -7 33 8 18 25 18 41 -2
60 -19 20 -28 20 -44 2z"/>
<path d="M16975 8390 c-3 -5 -3 -14 0 -20 10 -17 34 -11 45 10 9 17 8 20 -14
20 -14 0 -28 -4 -31 -10z"/>
<path d="M7380 6675 c0 -60 9 -66 64 -45 21 8 26 16 26 44 0 39 -20 56 -64 56
-25 0 -26 -3 -26 -55z"/>
<path d="M7688 6562 c-37 -4 -53 -26 -34 -45 17 -17 55 -12 63 9 9 25 -2 39
-29 36z"/>
<path d="M8128 6562 c-14 -2 -32 -10 -39 -19 -11 -13 -10 -17 4 -28 20 -15 56
-9 64 11 9 25 -2 39 -29 36z"/>
<path d="M8780 6631 c-24 -47 -1 -121 38 -121 21 0 42 32 42 66 0 48 -16 74
-45 74 -14 0 -29 -8 -35 -19z"/>
<path d="M9244 6650 c-12 -5 -24 -15 -27 -24 -5 -13 2 -16 44 -16 34 0 49 4
47 12 -7 21 -42 36 -64 28z"/>
<path d="M9498 6638 l-23 -23 49 -3 c59 -4 68 4 37 29 -30 24 -36 24 -63 -3z"/>
<path d="M10746 6628 c-31 -44 -13 -108 29 -108 33 0 59 41 50 77 -14 56 -51
71 -79 31z"/>
<path d="M7267 5913 c-13 -13 -7 -71 9 -84 34 -28 73 41 43 77 -12 15 -41 19
-52 7z"/>
<path d="M7462 5908 c-17 -17 -15 -53 4 -72 21 -21 30 -20 47 5 30 43 -15 103
-51 67z"/>
<path d="M11162 5908 c-34 -34 7 -108 44 -77 19 16 18 75 -2 83 -22 8 -28 8
-42 -6z"/>
<path d="M11616 5904 c-19 -50 6 -94 43 -74 36 19 25 90 -14 90 -13 0 -26 -7
-29 -16z"/>
<path d="M11992 5908 c-34 -34 7 -108 44 -77 23 19 15 83 -11 87 -11 1 -26 -3
-33 -10z"/>
<path d="M5543 5863 c-18 -7 -16 -30 2 -37 23 -8 45 4 45 25 0 19 -20 24 -47
12z"/>
<path d="M5863 5854 c-3 -8 0 -21 6 -27 14 -14 44 2 49 27 5 22 -46 22 -55 0z"/>
<path d="M6282 5908 c-24 -24 -4 -88 28 -88 14 0 40 30 40 46 0 44 -41 69 -68
42z"/>
<path d="M6553 5863 c-18 -7 -16 -30 3 -37 19 -7 44 10 44 30 0 14 -23 17 -47
7z"/>
<path d="M6757 5913 c-18 -17 -5 -33 28 -33 37 0 43 8 23 28 -13 13 -41 16
-51 5z"/>
<path d="M7132 5908 c-20 -20 -14 -28 24 -28 28 0 35 3 32 18 -4 21 -39 27
-56 10z"/>
<path d="M7602 5908 c-20 -20 -14 -28 24 -28 28 0 35 3 32 18 -4 21 -39 27
-56 10z"/>
<path d="M7852 5908 c-20 -20 -14 -28 24 -28 28 0 35 3 32 18 -4 21 -39 27
-56 10z"/>
<path d="M8030 5899 c-14 -26 -6 -65 16 -73 26 -10 54 12 54 42 0 50 -49 72
-70 31z"/>
<path d="M8168 5895 c-9 -19 -8 -29 6 -50 9 -14 21 -25 26 -25 16 0 40 31 40
54 0 47 -53 63 -72 21z"/>
<path d="M8307 5913 c-18 -17 -5 -33 28 -33 37 0 43 8 23 28 -13 13 -41 16
-51 5z"/>
<path d="M9103 5863 c-18 -7 -16 -30 2 -37 23 -8 45 4 45 25 0 19 -20 24 -47
12z"/>
<path d="M9572 5908 c-19 -19 -15 -66 7 -78 27 -14 28 -13 46 14 30 45 -16
101 -53 64z"/>
<path d="M9834 5907 c-3 -9 -4 -28 -2 -44 2 -22 9 -29 30 -31 23 -3 29 2 34
24 4 15 2 34 -3 43 -13 21 -52 26 -59 8z"/>
<path d="M10173 5854 c-3 -8 -1 -20 5 -26 13 -13 52 7 52 27 0 20 -49 19 -57
-1z"/>
<path d="M10540 5901 c-7 -13 -7 -28 0 -45 16 -43 70 -28 70 19 0 43 -50 62
-70 26z"/>
<path d="M10760 5900 c-12 -23 -6 -52 15 -70 22 -18 55 5 55 38 0 50 -49 72
-70 32z"/>
<path d="M12312 5908 c-29 -29 -4 -84 35 -76 28 5 26 82 -2 86 -11 1 -26 -3
-33 -10z"/>
<path d="M12712 5908 c-19 -19 -15 -66 7 -78 27 -14 28 -13 46 14 30 45 -16
101 -53 64z"/>
<path d="M12982 5908 c-20 -20 -14 -28 24 -28 28 0 35 3 32 18 -4 21 -39 27
-56 10z"/>
<path d="M8312 5558 c-20 -20 -15 -66 10 -79 18 -10 24 -8 39 10 34 42 -11
107 -49 69z"/>
<path d="M10250 5551 c-15 -28 -12 -46 9 -65 22 -20 49 -12 57 19 13 51 -42
89 -66 46z"/>
<path d="M6852 5558 c-21 -21 -13 -28 28 -28 22 0 40 4 40 8 0 14 -23 32 -40
32 -9 0 -21 -5 -28 -12z"/>
<path d="M7105 5555 c-3 -8 -7 -22 -9 -30 -3 -7 3 -24 13 -36 15 -18 21 -20
39 -10 24 13 30 59 10 79 -17 17 -48 15 -53 -3z"/>
<path d="M7242 5558 c-19 -19 -15 -66 7 -78 27 -14 28 -13 46 14 30 45 -16
101 -53 64z"/>
<path d="M7797 5563 c-18 -17 -5 -33 28 -33 37 0 43 8 23 28 -13 13 -41 16
-51 5z"/>
<path d="M8052 5508 c-16 -16 -15 -25 4 -32 20 -8 54 11 54 29 0 18 -41 20
-58 3z"/>
<path d="M8760 5550 c-10 -18 -8 -20 30 -20 41 0 49 7 28 28 -18 18 -46 14
-58 -8z"/>
<path d="M9292 5558 c-20 -20 -14 -28 24 -28 28 0 35 3 32 18 -4 21 -39 27
-56 10z"/>
<path d="M10112 5558 c-21 -21 -13 -28 28 -28 22 0 40 4 40 8 0 14 -23 32 -40
32 -9 0 -21 -5 -28 -12z"/>
<path d="M10453 5513 c-18 -7 -16 -30 3 -37 19 -7 44 10 44 30 0 14 -23 17
-47 7z"/>
<path d="M10717 5563 c-13 -12 -7 -70 7 -82 37 -31 78 43 44 77 -13 13 -41 16
-51 5z"/>
<path d="M11083 5513 c-18 -7 -16 -30 3 -37 21 -8 20 -8 38 10 26 26 -1 44
-41 27z"/>
<path d="M11340 5550 c-12 -23 -6 -52 15 -70 22 -18 55 5 55 38 0 50 -49 72
-70 32z"/>
<path d="M7905 4840 c-14 -23 -43 -120 -36 -120 5 0 11 9 14 20 3 14 14 20 32
20 18 0 29 -6 32 -20 3 -11 10 -20 15 -20 6 0 8 6 5 13 -2 6 -13 36 -23 65
-19 52 -27 61 -39 42z m28 -50 c4 -15 0 -20 -14 -20 -20 0 -23 8 -13 34 7 20
20 13 27 -14z"/>
<path d="M7990 4787 l0 -64 35 -1 c40 -2 59 23 49 62 -6 26 -36 42 -54 31 -5
-3 -10 3 -10 14 0 12 -4 21 -10 21 -6 0 -10 -28 -10 -63z m70 -22 c0 -23 -24
-40 -41 -29 -14 8 -11 62 4 67 18 7 37 -12 37 -38z"/>
<path d="M8420 4785 c0 -37 4 -65 10 -65 6 0 10 21 11 48 l0 47 17 -42 c9 -23
20 -45 24 -49 4 -4 18 15 30 42 l22 49 6 -50 7 -50 1 68 c2 68 -10 88 -27 45
-5 -13 -15 -36 -21 -53 l-12 -30 -24 53 c-13 28 -28 52 -34 52 -6 0 -10 -28
-10 -65z"/>
<path d="M8311 4822 c-9 -9 -10 -16 -3 -21 6 -3 12 -22 14 -40 2 -20 9 -36 18
-39 12 -4 13 -2 3 9 -17 17 -17 66 -1 71 10 4 9 8 -2 20 -14 13 -17 13 -29 0z"/>
<path d="M8111 4806 c-31 -37 9 -103 47 -80 36 23 23 94 -18 94 -10 0 -23 -6
-29 -14z m57 -32 c4 -29 -23 -51 -43 -34 -16 13 -20 42 -8 54 14 14 48 1 51
-20z"/>
<path d="M8214 4775 c1 -49 1 -50 34 -50 l32 -1 -2 51 c-1 40 -2 43 -5 15 -9
-71 -49 -76 -56 -7 -4 36 -4 35 -3 -8z"/>
<path d="M8586 4797 c-9 -12 -13 -32 -9 -45 6 -26 49 -40 66 -22 9 10 8 11 -8
6 -24 -7 -50 8 -41 23 4 6 20 11 37 11 32 0 37 11 13 34 -22 22 -41 20 -58 -7z
m54 -8 c0 -5 -12 -9 -26 -9 -22 0 -24 2 -14 14 12 15 40 11 40 -5z"/>
<path d="M9970 4805 c0 -26 14 -31 39 -16 19 12 6 41 -19 41 -15 0 -20 -7 -20
-25z"/>
<path d="M9675 4790 c-3 -5 3 -10 14 -10 12 0 21 5 21 10 0 6 -6 10 -14 10 -8
0 -18 -4 -21 -10z"/>
<path d="M10144 4785 c-8 -21 3 -45 20 -45 20 0 29 16 21 40 -7 23 -33 27 -41
5z"/>
<path d="M10295 4790 c-3 -5 3 -10 14 -10 12 0 21 5 21 10 0 6 -6 10 -14 10
-8 0 -18 -4 -21 -10z"/>
<path d="M8481 1905 c-6 -16 -14 -36 -16 -42 -3 -9 6 -13 25 -13 33 0 34 1 15
50 l-13 35 -11 -30z"/>
<path d="M8720 1874 c-20 -51 14 -104 53 -83 17 10 23 61 11 93 -10 26 -53 20
-64 -10z"/>
<path d="M8957 1894 c-14 -14 -7 -91 9 -105 28 -23 49 1 49 57 0 45 -2 49 -25
52 -14 2 -29 0 -33 -4z"/>
<path d="M9997 1894 c-15 -16 -5 -24 29 -24 24 0 34 4 32 13 -5 13 -50 22 -61
11z"/>
<path d="M5957 1193 c-13 -12 -7 -70 7 -82 37 -31 78 43 44 77 -13 13 -41 16
-51 5z"/>
<path d="M6152 1188 c-17 -17 -15 -54 4 -73 20 -20 36 -15 51 15 22 44 -22 91
-55 58z"/>
<path d="M12156 1185 c-19 -52 12 -98 48 -72 12 9 17 24 14 47 -2 29 -7 36
-29 38 -17 2 -29 -3 -33 -13z"/>
<path d="M5453 1143 c-18 -7 -16 -30 2 -37 23 -8 45 4 45 25 0 19 -20 24 -47
12z"/>
<path d="M5822 1188 c-20 -20 -14 -28 24 -28 28 0 35 3 32 18 -4 21 -39 27
-56 10z"/>
<path d="M6292 1188 c-20 -20 -14 -28 24 -28 28 0 35 3 32 18 -4 21 -39 27
-56 10z"/>
<path d="M6542 1188 c-20 -20 -14 -28 24 -28 28 0 35 3 32 18 -4 21 -39 27
-56 10z"/>
<path d="M6720 1181 c-21 -41 8 -89 45 -75 20 8 31 53 18 73 -15 24 -50 25
-63 2z"/>
<path d="M6860 1181 c-21 -41 8 -89 45 -75 20 8 31 53 18 73 -15 24 -50 25
-63 2z"/>
<path d="M6997 1193 c-18 -17 -5 -33 28 -33 37 0 43 8 23 28 -13 13 -41 16
-51 5z"/>
<path d="M7792 1188 c-17 -17 -15 -53 4 -72 20 -21 27 -20 49 4 36 40 -15 106
-53 68z"/>
<path d="M8042 1188 c-20 -20 -14 -28 24 -28 28 0 35 3 32 18 -4 21 -39 27
-56 10z"/>
<path d="M8642 1188 c-20 -20 -14 -28 24 -28 28 0 35 3 32 18 -4 21 -39 27
-56 10z"/>
<path d="M8773 1143 c-18 -7 -16 -30 2 -37 23 -8 45 4 45 25 0 19 -20 24 -47
12z"/>
<path d="M9160 1180 c-12 -23 -6 -52 15 -70 22 -18 55 5 55 38 0 50 -49 72
-70 32z"/>
<path d="M9442 1188 c-20 -20 -14 -28 24 -28 28 0 35 3 32 18 -4 21 -39 27
-56 10z"/>
<path d="M9695 1185 c-3 -8 -7 -22 -9 -30 -3 -7 3 -24 13 -36 15 -18 21 -20
39 -10 24 13 30 59 10 79 -17 17 -48 15 -53 -3z"/>
<path d="M9832 1188 c-20 -20 -14 -28 24 -28 28 0 35 3 32 18 -4 21 -39 27
-56 10z"/>
<path d="M10097 1193 c-18 -17 -5 -33 28 -33 37 0 43 8 23 28 -13 13 -41 16
-51 5z"/>
<path d="M10480 1180 c-10 -18 -8 -20 30 -20 41 0 49 7 28 28 -18 18 -46 14
-58 -8z"/>
<path d="M11631 1186 c-7 -8 -11 -27 -9 -43 3 -24 8 -28 33 -28 28 0 30 2 30
40 0 33 -4 41 -21 43 -11 2 -26 -4 -33 -12z"/>
<path d="M12020 1180 c-12 -23 -6 -52 15 -70 22 -18 55 5 55 38 0 50 -49 72
-70 32z"/>
<path d="M12302 1188 c-20 -20 -14 -28 24 -28 28 0 35 3 32 18 -4 21 -39 27
-56 10z"/>
<path d="M6622 838 c-17 -17 -15 -54 4 -73 20 -20 36 -15 51 15 22 44 -22 91
-55 58z"/>
<path d="M7862 838 c-34 -34 7 -108 44 -77 23 19 15 83 -11 87 -11 1 -26 -3
-33 -10z"/>
<path d="M11797 843 c-13 -12 -7 -70 7 -82 37 -31 78 43 44 77 -13 13 -41 16
-51 5z"/>
<path d="M5162 838 c-20 -20 -14 -28 24 -28 28 0 35 3 32 18 -4 21 -39 27 -56
10z"/>
<path d="M5408 825 c-9 -19 -8 -29 6 -50 19 -29 29 -31 50 -9 19 18 20 38 6
65 -15 27 -48 24 -62 -6z"/>
<path d="M5541 828 c-16 -43 17 -85 50 -67 22 11 26 58 7 77 -19 19 -48 14
-57 -10z"/>
<path d="M6100 830 c-10 -18 -8 -20 30 -20 41 0 49 7 28 28 -18 18 -46 14 -58
-8z"/>
<path d="M6363 793 c-18 -7 -16 -30 2 -37 23 -8 45 4 45 25 0 19 -20 24 -47
12z"/>
<path d="M7072 838 c-20 -20 -14 -28 24 -28 28 0 35 3 32 18 -4 21 -39 27 -56
10z"/>
<path d="M7603 844 c-28 -12 -13 -34 23 -34 28 0 35 3 32 18 -3 17 -32 25 -55
16z"/>
<path d="M8422 838 c-20 -20 -14 -28 24 -28 28 0 35 3 32 18 -4 21 -39 27 -56
10z"/>
<path d="M8753 784 c-3 -8 -1 -20 5 -26 13 -13 52 7 52 27 0 20 -49 19 -57 -1z"/>
<path d="M8892 838 c-35 -35 4 -103 42 -75 25 19 18 81 -9 85 -11 1 -26 -3
-33 -10z"/>
<path d="M9027 843 c-13 -12 -7 -70 7 -82 37 -31 78 43 44 77 -13 13 -41 16
-51 5z"/>
<path d="M9393 793 c-16 -6 -17 -29 -3 -38 18 -11 50 6 50 26 0 19 -19 24 -47
12z"/>
<path d="M9652 838 c-7 -7 -12 -24 -12 -40 0 -50 64 -61 76 -13 12 47 -33 84
-64 53z"/>
<path d="M10413 784 c-3 -8 -1 -20 5 -26 13 -13 52 7 52 27 0 20 -49 19 -57
-1z"/>
<path d="M10662 838 c-20 -20 -14 -28 24 -28 28 0 35 3 32 18 -4 21 -39 27
-56 10z"/>
<path d="M10852 788 c-16 -16 -15 -25 4 -32 20 -8 54 11 54 29 0 18 -41 20
-58 3z"/>
<path d="M11320 830 c-13 -24 -3 -67 17 -74 25 -10 53 12 53 42 0 50 -49 72
-70 32z"/>
<path d="M11592 838 c-28 -28 -8 -82 29 -76 21 3 24 8 24 43 0 32 -4 41 -20
43 -11 1 -26 -3 -33 -10z"/>
<path d="M11933 793 c-18 -7 -16 -30 3 -37 19 -7 44 10 44 30 0 14 -23 17 -47
7z"/>
<path d="M12302 838 c-28 -28 -8 -82 29 -76 21 3 24 8 24 43 0 32 -4 41 -20
43 -11 1 -26 -3 -33 -10z"/>
<path d="M12517 843 c-13 -12 -7 -70 7 -82 37 -31 78 43 44 77 -13 13 -41 16
-51 5z"/>
<path d="M6322 508 c2 -26 8 -34 26 -36 28 -4 52 14 52 38 0 20 -19 30 -56 30
-22 0 -25 -4 -22 -32z"/>
<path d="M7322 488 c-34 -34 7 -108 44 -77 23 19 15 83 -11 87 -11 1 -26 -3
-33 -10z"/>
<path d="M8666 484 c-19 -50 16 -102 50 -73 17 14 19 60 2 77 -17 17 -45 15
-52 -4z"/>
<path d="M11892 488 c-17 -17 -15 -63 4 -79 26 -21 49 1 49 47 0 31 -4 40 -20
42 -11 1 -26 -3 -33 -10z"/>
<path d="M5201 436 c-9 -10 -8 -16 3 -25 18 -15 56 2 56 24 0 19 -44 20 -59 1z"/>
<path d="M5441 436 c-9 -10 -8 -16 3 -25 18 -15 56 2 56 24 0 19 -44 20 -59 1z"/>
<path d="M5987 493 c-13 -12 -7 -70 7 -82 37 -31 78 43 44 77 -13 13 -41 16
-51 5z"/>
<path d="M6472 488 c-20 -20 -14 -28 24 -28 28 0 35 3 32 18 -4 21 -39 27 -56
10z"/>
<path d="M6603 443 c-18 -7 -16 -32 2 -39 18 -7 45 12 45 32 0 14 -23 17 -47
7z"/>
<path d="M7063 443 c-18 -7 -16 -30 3 -37 19 -7 44 10 44 30 0 14 -23 17 -47
7z"/>
<path d="M7641 436 c-9 -10 -8 -16 3 -25 18 -15 56 2 56 24 0 19 -44 20 -59 1z"/>
<path d="M7907 493 c-13 -12 -7 -70 7 -82 37 -31 78 43 44 77 -13 13 -41 16
-51 5z"/>
<path d="M8532 488 c-20 -20 -14 -28 24 -28 28 0 35 3 32 18 -4 21 -39 27 -56
10z"/>
<path d="M9000 480 c-10 -18 -8 -20 30 -20 41 0 49 7 28 28 -18 18 -46 14 -58
-8z"/>
<path d="M9250 480 c-10 -18 -8 -20 30 -20 41 0 49 7 28 28 -18 18 -46 14 -58
-8z"/>
<path d="M9437 493 c-15 -14 -7 -72 11 -82 39 -21 73 44 40 77 -13 13 -41 16
-51 5z"/>
<path d="M9577 494 c-12 -13 -8 -71 7 -83 31 -26 72 31 49 68 -11 17 -44 26
-56 15z"/>
<path d="M9902 488 c-21 -21 -13 -28 28 -28 22 0 40 4 40 8 0 14 -23 32 -40
32 -9 0 -21 -5 -28 -12z"/>
<path d="M10473 434 c-3 -8 -1 -20 5 -26 13 -13 52 7 52 27 0 20 -49 19 -57
-1z"/>
<path d="M10802 488 c-20 -20 -14 -28 24 -28 28 0 35 3 32 18 -4 21 -39 27
-56 10z"/>
<path d="M11112 488 c-19 -19 -15 -66 7 -78 27 -14 28 -13 46 14 30 45 -16
101 -53 64z"/>
<path d="M11633 443 c-18 -7 -16 -30 2 -37 23 -8 45 4 45 25 0 19 -20 24 -47
12z"/>
<path d="M12172 488 c-24 -24 -4 -88 28 -88 14 0 40 30 40 46 0 44 -41 69 -68
42z"/>
<path d="M12307 493 c-13 -12 -7 -70 7 -82 37 -31 78 43 44 77 -13 13 -41 16
-51 5z"/>
<path d="M6437 143 c-13 -12 -7 -70 7 -82 37 -31 78 43 44 77 -13 13 -41 16
-51 5z"/>
<path d="M9850 131 c-15 -28 -12 -46 9 -65 22 -20 49 -12 57 19 13 51 -42 89
-66 46z"/>
<path d="M5223 93 c-18 -7 -16 -30 3 -37 19 -7 44 10 44 30 0 14 -23 17 -47 7z"/>
<path d="M5630 130 c-23 -43 14 -91 54 -68 19 10 21 59 4 76 -18 18 -46 14
-58 -8z"/>
<path d="M5903 93 c-18 -7 -16 -32 2 -39 18 -7 45 12 45 32 0 14 -23 17 -47 7z"/>
<path d="M6107 143 c-18 -17 -5 -33 28 -33 37 0 43 8 23 28 -13 13 -41 16 -51
5z"/>
<path d="M6303 93 c-16 -6 -17 -29 -3 -38 17 -10 47 4 53 25 4 16 0 20 -16 19
-12 0 -28 -3 -34 -6z"/>
<path d="M6572 138 c-19 -19 -15 -66 7 -78 27 -14 28 -13 46 14 30 45 -16 101
-53 64z"/>
<path d="M7180 130 c-10 -18 -8 -20 30 -20 41 0 49 7 28 28 -18 18 -46 14 -58
-8z"/>
<path d="M7311 86 c-9 -10 -8 -16 3 -25 18 -15 56 2 56 24 0 19 -44 20 -59 1z"/>
<path d="M8733 84 c-3 -8 0 -21 6 -27 14 -14 44 2 49 27 5 22 -46 22 -55 0z"/>
<path d="M9543 93 c-18 -7 -16 -30 3 -37 19 -7 44 10 44 30 0 14 -23 17 -47 7z"/>
<path d="M9723 93 c-18 -7 -16 -30 2 -37 23 -8 45 4 45 25 0 19 -20 24 -47 12z"/>
<path d="M10042 138 c-20 -20 -14 -28 24 -28 28 0 35 3 32 18 -4 21 -39 27
-56 10z"/>
<path d="M10293 84 c-3 -8 0 -21 6 -27 14 -14 44 2 49 27 5 22 -46 22 -55 0z"/>
<path d="M10951 86 c-9 -10 -8 -16 3 -25 18 -15 56 2 56 24 0 19 -44 20 -59 1z"/>
<path d="M11343 84 c-3 -8 -1 -20 5 -26 13 -13 52 7 52 27 0 20 -49 19 -57 -1z"/>
<path d="M11663 93 c-18 -7 -16 -32 2 -39 18 -7 45 12 45 32 0 14 -23 17 -47
7z"/>
<path d="M11982 138 c-20 -20 -14 -28 24 -28 28 0 35 3 32 18 -4 21 -39 27
-56 10z"/>
<path d="M12302 138 c-19 -19 -15 -66 7 -78 27 -14 28 -13 46 14 30 45 -16
101 -53 64z"/>
<path d="M12570 130 c-10 -18 -8 -20 30 -20 41 0 49 7 28 28 -18 18 -46 14
-58 -8z"/>
<path d="M12981 86 c-9 -10 -8 -16 3 -25 18 -15 56 2 56 24 0 19 -44 20 -59 1z"/>
<path d="M5087 143 c-13 -12 -7 -70 7 -82 37 -31 78 43 44 77 -13 13 -41 16
-51 5z"/>
<path d="M7711 136 c-7 -8 -11 -27 -9 -43 3 -24 8 -28 33 -28 28 0 30 2 30 40
0 33 -4 41 -21 43 -11 2 -26 -4 -33 -12z"/>
<path d="M8091 128 c-17 -46 21 -86 54 -58 18 15 19 52 3 68 -19 19 -48 14
-57 -10z"/>
<path d="M8472 138 c-35 -35 4 -103 42 -75 25 19 18 81 -9 85 -11 1 -26 -3
-33 -10z"/>
</g>
</svg>
